<?xml version="1.0" encoding="utf-8"?>
<!-- Generator: Adobe Illustrator 26.1.0, SVG Export Plug-In . SVG Version: 6.00 Build 0)  -->
<svg version="1.1" id="Layer_1" xmlns="http://www.w3.org/2000/svg" xmlns:xlink="http://www.w3.org/1999/xlink" x="0px" y="0px"
	 viewBox="0 0 894 238" style="enable-background:new 0 0 894 238;" xml:space="preserve">
<style type="text/css">
	.st0{fill:#E5D9B8;stroke:#E5D9B8;stroke-width:0.25;stroke-miterlimit:10;}
	.st1{fill:#E5D9B8;}
	.st2{fill:#944E3C;}
	.st3{fill:#944E3C;}
	.st4{fill:#E5D9B8;stroke:#E5D9B8;stroke-width:0.25;stroke-miterlimit:10;}
</style>
<g>
	<path class="st0" d="M252.27441,191.42969c0.80273,0,1.2041,0.4375,1.2041,1.31055c0,0.6377-0.13916,1.14258-0.41602,1.51465
		c-0.27783,0.37109-0.6582,0.55762-1.14258,0.55762c-2.71533,0-5.15918,0.11816-7.33154,0.35352
		c-1.00342,0.13086-1.80029,0.19531-2.39062,0.19531c-0.7793,0-1.16895-0.57227-1.16895-1.71777
		c0-0.37793,0.15332-0.72266,0.46045-1.03613c0.30713-0.3125,0.68799-0.51953,1.14258-0.62012
		c0.4541-0.09961,1.78857-0.21777,4.00195-0.35352C248.84766,191.49805,250.72754,191.42969,252.27441,191.42969z"/>
	<path class="st0" d="M294.03223,198.26562c0,0.84961-0.25098,1.72363-0.75244,2.62109
		c-0.50195,0.89746-1.30176,1.73535-2.39941,2.51465c-0.34277,0.23633-0.75879,0.49316-1.24854,0.77051
		c-0.49023,0.27734-1.02148,0.55762-1.59375,0.84082c-0.57324,0.2832-1.17529,0.55762-1.80664,0.82324
		c-0.63184,0.26562-1.26904,0.49902-1.9126,0.7002c-0.64355,0.2002-1.27197,0.3623-1.88574,0.48633
		c-0.61426,0.12402-1.19287,0.18652-1.73584,0.18652c-0.27148,0-0.50439-0.02148-0.69922-0.0625s-0.375-0.11523-0.54004-0.22168
		c-0.16553-0.10547-0.3252-0.25391-0.47852-0.44238s-0.31885-0.4248-0.49561-0.70801
		c-0.28369,0.21191-0.58154,0.36914-0.89453,0.46875c-0.31299,0.10059-0.62842,0.15039-0.94727,0.15039H276.146
		c-0.09424,0-0.18311-0.03223-0.26562-0.09668c-0.08252-0.06543-0.15625-0.14453-0.22119-0.23926s-0.11523-0.19727-0.15039-0.30957
		c-0.03564-0.1123-0.05322-0.22168-0.05322-0.32812c0-0.60156,0.08545-1.17773,0.25684-1.72656
		c0.1709-0.54883,0.36865-1.09473,0.59326-1.6377c0.33008-1.00391,0.66699-2.05762,1.00928-3.16113
		c0.34229-1.10449,0.67285-2.21094,0.9917-3.32031c0.31885-1.11035,0.62256-2.20508,0.91211-3.28516
		c0.28906-1.08105,0.55762-2.10449,0.80566-3.07324l0.49609-2.05371c0-0.03516-0.00635-0.13574-0.01807-0.30078
		c-0.01172-0.16602-0.02637-0.3457-0.04395-0.54102c-0.01807-0.19434-0.03271-0.37402-0.04443-0.54004l-0.01758-0.22949
		l0.08838-0.30176l-0.01758,0.01758c0.05908-0.21191,0.1416-0.4541,0.24805-0.72559
		c0.10596-0.27148,0.23584-0.52539,0.38916-0.76172s0.32178-0.43359,0.50488-0.59277
		c0.18311-0.16016,0.38086-0.23926,0.59326-0.23926c0.20068,0,0.45752,0.01465,0.77051,0.04395
		c0.3125,0.03027,0.59326,0.04492,0.84131,0.04492c0.11768,0,0.23291-0.00586,0.34521-0.01855
		c0.11182-0.01074,0.25342-0.04102,0.4248-0.08789c0.1709-0.04688,0.39551-0.11523,0.67285-0.2041
		c0.27734-0.08789,0.64062-0.20898,1.08936-0.36328c0.67285-0.23535,1.28955-0.43359,1.85059-0.59277
		c0.56055-0.15918,1.0918-0.28906,1.59375-0.38965c0.50146-0.10059,0.98877-0.17383,1.46094-0.22168
		c0.47217-0.04688,0.95654-0.07031,1.45215-0.07031c0.62549,0,1.23096,0.05859,1.81543,0.17676s1.10352,0.30957,1.55811,0.5752
		s0.81738,0.61426,1.08936,1.04492c0.27148,0.43164,0.40723,0.9541,0.40723,1.56738c0,1.05078-0.27734,1.99512-0.83252,2.83398
		c-0.55469,0.83789-1.33984,1.61719-2.35498,2.33691c-1.01562,0.7207-2.23438,1.39062-3.65723,2.01074
		c-1.42285,0.61914-3.00781,1.23047-4.75488,1.83301c1.39307,0.21191,2.59473,0.46289,3.604,0.75195
		c1.00928,0.29004,1.84424,0.62891,2.50586,1.01855c0.66113,0.38965,1.15088,0.83203,1.46973,1.32812
		S294.03223,197.62793,294.03223,198.26562z M288.01123,196.63672c-0.11816-0.02441-0.3335-0.06543-0.64648-0.12402
		c-0.31299-0.05957-0.67871-0.12402-1.09766-0.19531c-0.41943-0.07031-0.87109-0.14453-1.35498-0.22168
		c-0.48438-0.07617-0.94482-0.15332-1.38135-0.22949c-0.43701-0.07715-0.83545-0.15039-1.19531-0.22168
		c-0.36035-0.07031-0.62256-0.12988-0.78809-0.17676c-0.44873,1.45215-0.84131,2.8418-1.17773,4.16992
		s-0.67578,2.66504-1.01807,4.01172l1.16895,0.12402c0.27148,0.02344,0.51025,0.04395,0.7168,0.06152
		s0.32764,0.02637,0.36328,0.02637c0.47217-0.04688,0.9917-0.13867,1.55859-0.27441
		c0.56641-0.13574,1.15381-0.30664,1.76172-0.51367c0.60791-0.20605,1.22461-0.44824,1.85059-0.72559
		s1.23975-0.57617,1.8418-0.89453c0.22412-0.1416,0.46045-0.3125,0.7085-0.51367c0.24805-0.2002,0.47217-0.42188,0.67285-0.66406
		s0.36572-0.49805,0.49609-0.77051c0.12939-0.27148,0.19482-0.54883,0.19482-0.83203c0-0.47168-0.24805-0.88281-0.74414-1.23047
		C289.4458,197.09375,288.80225,196.8252,288.01123,196.63672z M282.41504,192.52734
		c0.66113-0.21191,1.35791-0.46289,2.08984-0.75195s1.48438-0.60547,2.25781-0.94727
		c0.77344-0.34277,1.55859-0.70605,2.35547-1.08984c0.79688-0.38281,1.59082-0.77051,2.38184-1.15918h-0.01758
		c0.2832-0.15332,0.56348-0.33984,0.84082-0.55859c0.27734-0.21777,0.52539-0.4541,0.74414-0.70801
		c0.21826-0.25391,0.39551-0.51953,0.53125-0.79688c0.13525-0.27734,0.20361-0.55176,0.20361-0.82324
		c0-0.17773-0.0415-0.35449-0.12402-0.53125c-0.08252-0.17773-0.2124-0.33691-0.38965-0.47852s-0.41016-0.25391-0.69971-0.33691
		c-0.28906-0.08203-0.646-0.12305-1.07129-0.12305c-0.59033,0-1.25732,0.07324-2.00098,0.2207
		c-0.74365,0.14844-1.46387,0.33398-2.16064,0.55762c-0.69678,0.22461-1.31641,0.47266-1.85938,0.74414
		s-0.90332,0.53125-1.08008,0.7793c-0.03564,0.05957-0.08594,0.18848-0.15088,0.38965s-0.13867,0.42188-0.22119,0.66406
		s-0.16846,0.47559-0.25684,0.69922c-0.08838,0.22461-0.17432,0.38965-0.25684,0.49609
		c-0.02344,0.11816-0.0708,0.29785-0.1416,0.54004s-0.15674,0.52832-0.25684,0.85938
		c-0.10059,0.33008-0.2124,0.69629-0.33643,1.09766S282.54492,192.09082,282.41504,192.52734z"/>
	<path class="st0" d="M302.9751,181.91992c0.05908-0.47168,0.15332-0.90918,0.28369-1.31055
		c0.12939-0.40137,0.30371-0.73438,0.52246-1c0.21826-0.26562,0.49854-0.39844,0.84082-0.39844
		c0.18896,0,0.39844,0.03516,0.62891,0.10547c0.22998,0.07129,0.44824,0.16895,0.65527,0.29297
		c0.20654,0.12402,0.38086,0.27441,0.52246,0.45117s0.2124,0.37207,0.2124,0.58398c0,0.09473-0.01758,0.2041-0.05322,0.32812
		c-0.03516,0.12402-0.06494,0.24512-0.08838,0.36328l-4.42725,17.74414c-0.17725,0.70801-0.3252,1.38477-0.44287,2.02734
		c-0.11816,0.64355-0.20654,1.17188-0.26562,1.58496v0.42578c0,0.35352-0.02393,0.74023-0.0708,1.15918
		c-0.04736,0.41992-0.13574,0.80957-0.26562,1.16895c-0.12988,0.36035-0.31006,0.66113-0.54004,0.90332
		c-0.23047,0.24219-0.52881,0.36328-0.89453,0.36328c-0.31885,0-0.59619-0.06836-0.83203-0.2041
		c-0.23633-0.13574-0.43115-0.30957-0.58447-0.52246c-0.15381-0.21191-0.26562-0.43945-0.33643-0.68164
		c-0.0708-0.24121-0.10645-0.46875-0.10645-0.68164c0-0.18848,0.01758-0.42188,0.05322-0.69922
		c0.03516-0.27734,0.07959-0.56738,0.13281-0.86816s0.10889-0.60156,0.16797-0.90332
		c0.05908-0.30078,0.11816-0.56348,0.17725-0.78809l4.56885-18.13379C302.86914,182.8291,302.91602,182.39258,302.9751,181.91992z"
		/>
	<path class="st0" d="M306.88916,199.41699c0.17725-0.7207,0.45166-1.48535,0.82373-2.29395
		c0.37158-0.80859,0.85889-1.62598,1.46094-2.45215s1.3252-1.63574,2.16943-2.42676c0.84375-0.79102,1.8208-1.52832,2.93066-2.21289
		c0.17725-0.10645,0.44873-0.22168,0.81445-0.3457c0.36621-0.12402,0.74414-0.19727,1.13379-0.22168
		c0.46045-0.49609,1.08008-0.74316,1.85938-0.74316c0.9209,0,1.69678,0.23242,2.32861,0.69922
		c0.63135,0.4668,1.15381,1.10059,1.56738,1.90332c0.12988,0.25977,0.25049,0.51367,0.36279,0.76172
		s0.20654,0.51074,0.28369,0.78809c0.07666,0.27734,0.13867,0.5752,0.18555,0.89453
		c0.04736,0.31836,0.07129,0.67871,0.07129,1.08008c0,0.93262-0.14795,1.88281-0.44287,2.85156
		c-0.29541,0.96777-0.71436,1.91211-1.25732,2.83301c-0.54346,0.9209-1.20166,1.80371-1.97461,2.64746
		c-0.77344,0.84473-1.63232,1.60254-2.57666,2.27539c-0.6377,0.46094-1.34326,0.81738-2.11621,1.07129
		c-0.77344,0.25391-1.63818,0.38086-2.59473,0.38086c-0.90918,0-1.69727-0.12109-2.36377-0.3623
		c-0.66748-0.24219-1.22217-0.58789-1.66504-1.03613c-0.44238-0.44922-0.77295-0.98633-0.9917-1.61133
		c-0.21826-0.62598-0.32764-1.32227-0.32764-2.08984C306.57031,201.06348,306.67676,200.2666,306.88916,199.41699z
		 M309.8291,199.64648c-0.0708,0.27246-0.12109,0.5293-0.15039,0.77051c-0.02979,0.24219-0.04443,0.47559-0.04443,0.7002
		c0,0.38867,0.0498,0.75195,0.15039,1.08887c0.1001,0.33594,0.2627,0.62598,0.4873,0.86719
		c0.22412,0.24219,0.50439,0.43164,0.84082,0.56738s0.74658,0.20312,1.23096,0.20312c0.89697,0,1.73242-0.22656,2.50586-0.68164
		c0.77295-0.4541,1.46094-1.02441,2.06299-1.70898s1.10693-1.41992,1.51416-2.20508s0.69336-1.50781,0.85889-2.16895
		c0.10645-0.41309,0.19775-0.80273,0.27441-1.16895s0.11523-0.70215,0.11523-1.00977c0-0.30664-0.05615-0.59277-0.16846-0.8584
		s-0.25635-0.56348-0.43359-0.89453c-0.10645-0.2002-0.2124-0.41016-0.31885-0.62891
		c-0.10645-0.21777-0.20068-0.43359-0.2832-0.64648c-0.09473,0.16602-0.19482,0.31055-0.30127,0.43457
		c-0.10596,0.12402-0.26562,0.23633-0.47803,0.33594c-0.2124,0.10059-0.50195,0.19238-0.86768,0.27441
		c-0.36621,0.08301-0.84424,0.1543-1.43457,0.21289c-0.38965,0.12988-0.78516,0.33105-1.18652,0.60254
		s-0.79395,0.58984-1.17773,0.95605s-0.75,0.76172-1.09766,1.18652c-0.34863,0.4248-0.66162,0.8584-0.93896,1.30176
		c-0.27734,0.44238-0.51953,0.87598-0.72607,1.30176C310.05615,198.90332,309.91162,199.29297,309.8291,199.64648z"/>
	<path class="st0" d="M325.90869,205.03027c0.354-1.38086,0.69629-2.66797,1.02686-3.86035s0.65234-2.33496,0.96533-3.42676
		c0.3125-1.0918,0.6167-2.15137,0.91211-3.17871c0.29492-1.02734,0.57812-2.07227,0.8501-3.13477
		c0.10596-0.41309,0.16797-0.81152,0.18604-1.19531c0.01758-0.38379,0.07324-0.78223,0.16797-1.19531
		c0.04688-0.1416,0.13281-0.26855,0.25684-0.38086s0.2627-0.20898,0.41602-0.29199s0.31592-0.14746,0.4873-0.19531
		c0.1709-0.04688,0.3335-0.07031,0.48682-0.07031c0.33057,0,0.60498,0.03809,0.82373,0.11523
		c0.21826,0.07715,0.39502,0.17969,0.53125,0.30957c0.13525,0.12988,0.22998,0.28613,0.2832,0.46973
		c0.05322,0.18262,0.07959,0.38672,0.07959,0.61035c0,0.40137-0.06494,0.80566-0.19482,1.21289
		c-0.12988,0.4082-0.28955,0.85352-0.47803,1.33789c0.55469-0.43652,1.12451-0.85059,1.70898-1.24023
		s1.18652-0.73145,1.80615-1.02734c0.62012-0.29492,1.25439-0.53125,1.90381-0.70801
		c0.64893-0.17676,1.32227-0.26562,2.01904-0.26562c0.31836,0,0.63721,0.05078,0.95605,0.15039
		c0.31885,0.10059,0.60498,0.25684,0.85889,0.46973c0.25391,0.21191,0.46631,0.49023,0.6377,0.83203
		c0.1709,0.34277,0.26807,0.76172,0.29199,1.25781c0.50732-0.34277,1.0332-0.68848,1.57617-1.03613
		c0.54297-0.34863,1.09473-0.66113,1.65576-0.93848c0.56055-0.27734,1.12158-0.50195,1.68262-0.67285
		c0.56055-0.17188,1.10645-0.25684,1.6377-0.25684c0.79102,0,1.44336,0.10352,1.95703,0.30957
		c0.51367,0.20703,0.9209,0.48438,1.22217,0.83203c0.30078,0.34863,0.51318,0.75293,0.63721,1.21289
		c0.12402,0.46094,0.18604,0.95117,0.18604,1.4707c0,0.56641-0.05322,1.15039-0.15918,1.75293
		c-0.10645,0.60156-0.22461,1.1748-0.35449,1.71777c-0.34229,1.36914-0.72607,2.66504-1.15088,3.88672
		c-0.42529,1.22266-0.88574,2.45898-1.38135,3.70996c-0.11816,0.2959-0.24219,0.6084-0.37207,0.93945
		c-0.12988,0.33008-0.28027,0.63477-0.45166,0.91113c-0.1709,0.27832-0.37158,0.50781-0.60205,0.69141
		c-0.22998,0.18262-0.49854,0.27441-0.80566,0.27441c-0.69678,0-1.1748-0.11816-1.43457-0.35449s-0.38965-0.57227-0.38965-1.00977
		c0-0.11719,0.00586-0.25293,0.01807-0.40723c0.01172-0.15332,0.04102-0.30078,0.08838-0.44238
		c0.04688-0.17676,0.15332-0.43359,0.31885-0.77051c0.16504-0.33594,0.34521-0.69922,0.54004-1.08887
		s0.38672-0.78223,0.57568-1.17773c0.18848-0.39551,0.33008-0.74121,0.4248-1.03613c0.15332-0.50781,0.3335-1.09473,0.54004-1.76172
		s0.4043-1.33984,0.59326-2.01953c0.18896-0.67871,0.3457-1.32129,0.46973-1.92969c0.12354-0.6084,0.18555-1.10059,0.18555-1.47852
		c0-0.17773-0.01758-0.35449-0.05273-0.53125c-0.03564-0.17773-0.09766-0.33105-0.18604-0.46094
		c-0.08887-0.12988-0.21289-0.23633-0.37207-0.31836c-0.15918-0.08301-0.36279-0.12402-0.61084-0.12402
		c-0.35449,0-0.77637,0.10059-1.26611,0.30078c-0.49023,0.20117-0.99805,0.46387-1.52295,0.78809
		c-0.52588,0.3252-1.03613,0.69043-1.53223,1.09766c-0.49561,0.40723-0.9209,0.8125-1.2749,1.21387
		c-0.24805,0.2832-0.48438,0.5127-0.7085,0.69043c-0.22412,0.17676-0.44873,0.3125-0.67285,0.40723
		c-0.02393,0.04688-0.08252,0.20312-0.17725,0.46875c-0.09424,0.26562-0.20654,0.58496-0.33643,0.95703
		c-0.12988,0.37109-0.26562,0.77344-0.40723,1.2041s-0.27441,0.83203-0.39844,1.2041s-0.22754,0.68457-0.31006,0.93848
		s-0.12354,0.39258-0.12354,0.41602c-0.08301,0.33105-0.15381,0.66992-0.21289,1.01855s-0.1123,0.68164-0.15918,1
		c-0.04736,0.31934-0.0918,0.65918-0.13281,1.01855c-0.0415,0.36035-0.12402,0.69727-0.24805,1.00977
		s-0.31299,0.56934-0.56641,0.77051c-0.25439,0.2002-0.61133,0.30078-1.07178,0.30078c-0.23633,0-0.45166-0.05957-0.646-0.17676
		c-0.19482-0.11816-0.36328-0.26855-0.50488-0.45215c-0.1416-0.18262-0.25391-0.38965-0.33643-0.62012
		c-0.08301-0.22949-0.13037-0.46289-0.1416-0.69922c0.27148-1.0625,0.53711-2.01855,0.79688-2.86914
		c0.25928-0.84961,0.51904-1.66406,0.7793-2.44336c0.25928-0.7793,0.51025-1.56152,0.75244-2.34668
		c0.2417-0.78516,0.48096-1.64941,0.71729-2.59375c0.05859-0.22461,0.10596-0.44629,0.1416-0.66504
		c0.03516-0.21777,0.05322-0.40918,0.05322-0.5752c0-0.2832-0.05957-0.5166-0.17725-0.69922
		c-0.11816-0.18262-0.32471-0.27441-0.61963-0.27441c-0.48438,0-0.96533,0.09668-1.44336,0.29199
		c-0.47803,0.19434-0.99463,0.49902-1.5498,0.91211c-0.55469,0.41309-1.17188,0.93848-1.85059,1.57617
		s-1.46094,1.39844-2.34619,2.28418c-0.09473,0.17676-0.21875,0.50781-0.37207,0.99219
		c-0.15332,0.4834-0.31006,0.99707-0.46924,1.54004c-0.15918,0.54395-0.3042,1.04785-0.43408,1.51465
		c-0.12988,0.46582-0.2124,0.77637-0.24756,0.92969c-0.13037,0.49609-0.21875,0.91211-0.26562,1.24805
		c-0.04736,0.33691-0.08887,0.64062-0.12402,0.91211c-0.02393,0.1416-0.05908,0.375-0.10645,0.69922
		c-0.04736,0.3252-0.13281,0.65332-0.25684,0.9834c-0.12402,0.33105-0.29834,0.62207-0.52246,0.87695
		c-0.22412,0.25293-0.51953,0.37988-0.88525,0.37988c-0.54297,0-0.98877-0.14746-1.33691-0.44238
		c-0.34863-0.29492-0.52246-0.66699-0.52246-1.11523c0-0.08301,0.00586-0.16016,0.01758-0.23047
		C325.86719,205.18945,325.88477,205.11328,325.90869,205.03027z"/>
	<path class="st0" d="M357.46631,203.06445c0.09424,0,0.17969,0.01172,0.25684,0.03613
		c0.07666,0.02344,0.16211,0.0498,0.25684,0.0791c0.09424,0.0293,0.20068,0.05664,0.31885,0.08008
		c0.11768,0.02344,0.27148,0.03516,0.46045,0.03516c0.55469,0,1.17139-0.05859,1.85059-0.17676
		c0.67871-0.11816,1.31934-0.27148,1.92139-0.46094c0.60205-0.18848,1.11816-0.4043,1.54932-0.64648
		c0.43115-0.24121,0.67578-0.49219,0.73486-0.75195c0.03564-0.1416,0.05322-0.26562,0.05322-0.37207
		c0-0.20117-0.09717-0.39258-0.29199-0.57617c-0.19482-0.18262-0.43994-0.35645-0.73486-0.52246
		c-0.29541-0.16504-0.61426-0.31836-0.95654-0.45996s-0.66113-0.27148-0.95605-0.38965l-0.60205-0.24805
		c-0.30762-0.11816-0.6084-0.2627-0.90332-0.43359c-0.29541-0.1709-0.56982-0.36914-0.82373-0.59375
		c-0.25391-0.22363-0.47803-0.48633-0.67285-0.78809c-0.19482-0.30078-0.33936-0.64648-0.43359-1.03516
		c-0.04736-0.16602-0.08594-0.33105-0.11523-0.49609c-0.02979-0.16504-0.04443-0.34277-0.04443-0.53125
		c0-0.30664,0.10352-0.6582,0.31006-1.05371s0.48389-0.78809,0.83203-1.17773s0.74414-0.76172,1.18652-1.11621
		c0.44287-0.35352,0.90625-0.64844,1.39062-0.88477c0.354-0.24805,0.69629-0.47266,1.02686-0.67285
		c0.33057-0.20117,0.66406-0.37207,1.00049-0.51367s0.67871-0.25391,1.02734-0.33691
		c0.34814-0.08203,0.71729-0.12402,1.10693-0.12402c0.354,0,0.7373,0.01758,1.15088,0.05371
		c0.41309,0.03516,0.79102,0.11816,1.1333,0.24707c0.34229,0.13086,0.62891,0.32227,0.85889,0.57617
		c0.23047,0.25391,0.34521,0.59277,0.34521,1.01855c0,0.12988-0.01758,0.30078-0.05273,0.5127
		c-0.03564,0.21289-0.09473,0.42578-0.17725,0.6377c-0.08301,0.21289-0.18311,0.39551-0.30127,0.54883
		c-0.11816,0.1543-0.25977,0.23047-0.4248,0.23047c-0.27197,0-0.49609-0.05273-0.67285-0.15918
		c-0.17725-0.10645-0.33643-0.22168-0.47852-0.3457c-0.1416-0.12402-0.28906-0.23828-0.44238-0.34473
		c-0.15381-0.10645-0.34277-0.15918-0.56689-0.15918c-0.27148,0-0.5874,0.0498-0.94727,0.15039
		c-0.36035,0.10059-0.729,0.23633-1.10693,0.40723s-0.74658,0.36914-1.10693,0.59277
		c-0.36035,0.22461-0.68457,0.45508-0.97363,0.69043c-0.28955,0.23633-0.52246,0.46973-0.69971,0.7002
		s-0.26562,0.43945-0.26562,0.62891c0,0.2002,0.06494,0.36523,0.19482,0.49512s0.29492,0.24219,0.49561,0.33691
		c0.25977,0.1416,0.55811,0.2832,0.89453,0.4248s0.67578,0.2832,1.01807,0.4248s0.67578,0.2832,1.00098,0.42578
		c0.32422,0.1416,0.60449,0.27148,0.84082,0.38867c0.31885,0.16602,0.60498,0.32812,0.85889,0.4873s0.46924,0.33398,0.64648,0.52246
		c0.17725,0.18945,0.3125,0.40137,0.40723,0.6377c0.09424,0.23633,0.1416,0.51367,0.1416,0.83203
		c0,0.1543-0.01172,0.30762-0.03516,0.46094c-0.02393,0.15332-0.05908,0.33008-0.10645,0.53125
		c-0.03516,0.17676-0.09717,0.38379-0.18604,0.61914c-0.08838,0.23633-0.18311,0.46973-0.2832,0.7002
		c-0.10059,0.22949-0.20361,0.43652-0.31006,0.61914c-0.10596,0.18359-0.19482,0.30469-0.26562,0.36328
		c-0.46045,0.4248-1.00342,0.82324-1.62891,1.19531c-0.62598,0.37207-1.27832,0.69727-1.95703,0.97461
		c-0.6792,0.27734-1.35791,0.49902-2.03662,0.66406s-1.30127,0.24805-1.86816,0.24805c-0.2832,0-0.59619-0.05664-0.93848-0.16895
		c-0.34277-0.11133-0.6582-0.25977-0.94775-0.44238c-0.28906-0.18262-0.53125-0.39258-0.72607-0.62891
		s-0.29199-0.47168-0.29199-0.70801c0-0.11816,0.03516-0.25098,0.10645-0.39844c0.0708-0.14746,0.15918-0.2832,0.26562-0.40723
		c0.10596-0.12402,0.22119-0.23047,0.34521-0.31934C357.24512,203.10938,357.35986,203.06445,357.46631,203.06445z"/>
	<path class="st0" d="M374.57324,200.69141c0-0.99121,0.11182-2.02148,0.33643-3.08984
		c0.22412-1.06836,0.46045-2.09277,0.7085-3.07227c-0.30713-0.01172-0.62012-0.05957-0.93848-0.1416
		c-0.31885-0.08301-0.6084-0.19531-0.86816-0.33691s-0.47217-0.31543-0.63721-0.52246
		c-0.16553-0.20605-0.24805-0.44531-0.24805-0.7168c0-0.10645,0.02344-0.24219,0.0708-0.40723
		c0.04688-0.16602,0.11523-0.32812,0.20361-0.4873s0.20361-0.29492,0.34521-0.40723c0.14209-0.1123,0.30127-0.16895,0.47852-0.16895
		h2.37305c0.22412,0,0.37744-0.09668,0.46045-0.29199c0.08203-0.19434,0.14746-0.38672,0.19482-0.5752
		c0.15283-0.68457,0.29785-1.27832,0.43359-1.78027c0.13574-0.50098,0.25098-0.92676,0.34521-1.27441
		c0.09473-0.34863,0.16846-0.63184,0.22168-0.85059c0.05273-0.21777,0.07959-0.3916,0.07959-0.52246
		c0-0.15332-0.00635-0.30078-0.01758-0.44238c-0.01221-0.1416-0.01807-0.33691-0.01807-0.58398v-0.17773
		c0-0.09375,0.00879-0.21777,0.02686-0.37207c0.01758-0.15332,0.07324-0.37109,0.16797-0.65527
		c0.0708-0.22363,0.20068-0.43652,0.38965-0.63672c0.18896-0.20117,0.46631-0.30176,0.83252-0.30176
		c0.31885,0,0.59033,0.06543,0.81445,0.19531s0.40723,0.30078,0.54883,0.51367c0.14209,0.21191,0.24805,0.4541,0.31885,0.72559
		s0.10645,0.54297,0.10645,0.81445c0,0.2959-0.02979,0.56152-0.08838,0.79688l-1.29297,4.95898
		c0.6377-0.10645,1.2041-0.20605,1.7002-0.30078c0.49561-0.09473,0.9917-0.18945,1.4873-0.2832
		c0.54297-0.10645,1.01221-0.20703,1.4082-0.30176c0.39502-0.09375,0.73486-0.17383,1.01807-0.23926
		c0.2832-0.06445,0.52246-0.11719,0.71729-0.15918c0.19482-0.04102,0.35693-0.06152,0.48682-0.06152
		c0.18896,0,0.38086,0.01465,0.57568,0.04395s0.36572,0.08008,0.51367,0.15039c0.14746,0.07129,0.26807,0.17188,0.36279,0.30176
		c0.09424,0.12988,0.1416,0.30078,0.1416,0.5127c0,0.28418-0.05615,0.53516-0.16797,0.75293
		c-0.1123,0.21875-0.25684,0.40723-0.43408,0.56641c-0.17676,0.16016-0.37793,0.29004-0.60205,0.38965
		c-0.22412,0.10059-0.44873,0.1748-0.67285,0.22168c-0.18896,0.03516-0.43408,0.08887-0.73486,0.15918
		c-0.30127,0.07129-0.63184,0.14844-0.9917,0.23047c-0.36035,0.08301-0.73486,0.1709-1.12451,0.26562
		s-0.76758,0.18945-1.1333,0.2832c-0.54346,0.1416-1.00684,0.25977-1.39014,0.35449
		c-0.38379,0.09473-0.71143,0.16504-0.98291,0.21191c-0.27197,0.04785-0.49316,0.08301-0.66406,0.10645
		c-0.17139,0.02441-0.31006,0.03613-0.4165,0.03613c-0.22412,0.67285-0.41895,1.33398-0.58447,1.9834
		c-0.16504,0.64941-0.30371,1.25391-0.41602,1.81445c-0.1123,0.56152-0.19482,1.0625-0.24805,1.50586
		c-0.05273,0.44238-0.07959,0.78809-0.07959,1.03613c0,0.31836,0.0293,0.62207,0.08887,0.91113
		c0.05859,0.29004,0.15918,0.54102,0.30078,0.75293c0.1416,0.21289,0.3335,0.38086,0.57568,0.50488
		c0.2417,0.12402,0.5459,0.18555,0.91211,0.18555c0.62549,0,1.23926-0.1709,1.8418-0.51367
		c0.60205-0.3418,1.17725-0.77539,1.72656-1.30078c0.54883-0.52539,1.06836-1.10156,1.55811-1.72656
		c0.48975-0.62598,0.94141-1.22266,1.35498-1.78906c0.1416-0.21289,0.32471-0.31836,0.54883-0.31836
		c0.0708,0,0.15625,0.01172,0.25684,0.03516c0.1001,0.02344,0.19775,0.06445,0.29199,0.12402
		c0.09473,0.05859,0.17432,0.13574,0.23926,0.23047c0.06494,0.09375,0.09766,0.20605,0.09766,0.33594
		c0,0.09473-0.00635,0.16602-0.01807,0.21289c-0.18896,0.73145-0.48096,1.4668-0.87646,2.2041
		c-0.39551,0.73828-0.7998,1.47949-1.21289,2.22266c-0.14209,0.25977-0.32764,0.51367-0.55811,0.76172
		c-0.22998,0.24805-0.48096,0.4873-0.75244,0.7168c-0.27197,0.23047-0.55518,0.44922-0.8501,0.65527
		c-0.29541,0.20703-0.57275,0.39258-0.83252,0.55859c-0.44873,0.2832-0.93848,0.47754-1.46973,0.58398
		s-1.04492,0.15918-1.54053,0.15918c-0.76758,0-1.44971-0.13867-2.04541-0.41602c-0.59668-0.27734-1.09814-0.65527-1.50537-1.13281
		c-0.40723-0.47852-0.71729-1.03613-0.92969-1.67383S374.57324,201.42383,374.57324,200.69141z"/>
	<path class="st0" d="M390.93652,199.36328c0-0.50684,0.13574-0.93848,0.40723-1.29297
		c0.27148-0.35352,0.63135-0.58984,1.08008-0.70801c0.12988-0.25977,0.33057-0.61133,0.60205-1.05371
		s0.6084-0.92383,1.00977-1.44336c0.40088-0.51953,0.85889-1.04199,1.37256-1.56738
		c0.51318-0.52539,1.08008-1.00293,1.69971-1.43457c0.62012-0.43066,1.28662-0.78125,2.00146-1.05371
		c0.71387-0.27148,1.47266-0.40723,2.27539-0.40723c0.68457,0,1.28076,0.08301,1.78857,0.24805
		c0.50781,0.16602,0.92676,0.39551,1.25732,0.69043c0.33057,0.2959,0.57861,0.64648,0.74414,1.05371
		c0.16504,0.4082,0.24756,0.84766,0.24756,1.31934c0,0.40234-0.05322,0.78613-0.15918,1.15137
		c-0.16553,0.66113-0.47217,1.24023-0.9209,1.73535c-0.44873,0.49609-0.97705,0.92969-1.58496,1.30176
		c-0.6084,0.37207-1.26953,0.68164-1.9834,0.92969c-0.71436,0.24805-1.42871,0.45508-2.14307,0.62012
		s-1.40186,0.29199-2.06299,0.38086c-0.66113,0.08789-1.23389,0.15625-1.71777,0.20312
		c-0.10596,0.21289-0.19775,0.48145-0.27441,0.80566c-0.07715,0.3252-0.11523,0.64062-0.11523,0.94824
		c0,0.68457,0.27148,1.21582,0.81494,1.59375c0.54248,0.37793,1.29248,0.56641,2.24902,0.56641
		c0.55469,0,1.08594-0.0625,1.59375-0.18555c0.50732-0.12402,0.98877-0.28418,1.44336-0.47852
		c0.4541-0.19531,0.88232-0.40723,1.28369-0.6377s0.76758-0.45703,1.09814-0.68164c0.4248-0.2832,0.8291-0.52246,1.21289-0.7168
		c0.38379-0.19531,0.72314-0.29297,1.01855-0.29297c0.29492,0,0.48389,0.07422,0.56641,0.22168s0.12402,0.30371,0.12402,0.46973
		c0,0.09375-0.00293,0.18555-0.00879,0.27441c-0.00635,0.08789-0.01514,0.16211-0.02686,0.2207
		c-0.05908,0.30762-0.17676,0.61426-0.354,0.9209c-0.17725,0.30762-0.40137,0.57324-0.67285,0.79688
		c-1.22803,0.96875-2.48828,1.65918-3.78076,2.07227c-1.29297,0.41309-2.67139,0.62012-4.13525,0.62012
		c-0.2832,0-0.61719-0.01758-1.00049-0.05371c-0.38379-0.03516-0.78223-0.10645-1.19531-0.21191
		c-0.41357-0.10645-0.8208-0.25977-1.22217-0.46094c-0.40137-0.2002-0.75879-0.46582-1.07129-0.79688
		c-0.31299-0.33008-0.56689-0.7373-0.76172-1.22168s-0.29199-1.06836-0.29199-1.75293c0-0.55469,0.07666-1.1748,0.22998-1.85938
		c-0.15332-0.02441-0.29785-0.10352-0.43359-0.23926S390.93652,199.62305,390.93652,199.36328z M402.02246,194.45801
		c0.02344-0.05859,0.03516-0.1123,0.03516-0.15918s0-0.10059,0-0.15918c0-0.31934-0.11816-0.55859-0.354-0.71777
		c-0.23633-0.15918-0.51953-0.23926-0.8501-0.23926c-0.51953,0-1.03027,0.13672-1.53174,0.40723
		c-0.50195,0.27246-0.97412,0.61133-1.41699,1.01855c-0.44238,0.40723-0.83496,0.84473-1.17725,1.31055
		c-0.34277,0.4668-0.6084,0.88867-0.79736,1.2666c0.8501-0.07129,1.62939-0.18652,2.33789-0.3457s1.3252-0.36035,1.85059-0.60156
		c0.52539-0.24219,0.9502-0.51367,1.2749-0.81543C401.71826,195.12207,401.92773,194.80078,402.02246,194.45801z"/>
	<path class="st0" d="M409.46045,204.375c0.15332-0.82617,0.33057-1.73535,0.53125-2.72656
		c0.20068-0.99219,0.40723-1.99512,0.61963-3.01074c0.21289-1.01562,0.41895-2.0127,0.62012-2.99316
		c0.20068-0.97949,0.37158-1.87695,0.51367-2.69141c-0.01221-0.11816-0.01807-0.22168-0.01807-0.31055
		c0-0.08789,0-0.18555,0-0.29199c0-0.36523,0.02344-0.73145,0.0708-1.09766s0.1123-0.70215,0.19482-1.00977
		c0.12988-0.44824,0.27441-0.75293,0.43408-0.91211c0.15918-0.15918,0.41602-0.23926,0.77051-0.23926
		c0.34229,0,0.6167,0.06836,0.82324,0.2041s0.36865,0.31641,0.48682,0.54004c0.11816,0.22461,0.19482,0.48145,0.23047,0.77051
		c0.03516,0.28906,0.05322,0.58691,0.05322,0.89453c0,0.16504-0.00635,0.34766-0.01807,0.54883s-0.01758,0.36035-0.01758,0.47754
		c0.33057-0.3418,0.68164-0.69336,1.05371-1.05371c0.37207-0.35938,0.76758-0.68457,1.18652-0.97363s0.86182-0.52832,1.32812-0.7168
		c0.46631-0.18945,0.95312-0.2832,1.46094-0.2832c0.20068,0,0.39844,0.01758,0.59326,0.05273s0.39258,0.08301,0.59326,0.1416
		c0.23633,0.05957,0.48096,0.13867,0.73486,0.23926s0.49902,0.23926,0.73535,0.41602
		c0.38965,0.29492,0.7168,0.66406,0.98242,1.10645c0.26611,0.44336,0.39893,0.89453,0.39893,1.35547
		c0,0.17676-0.03564,0.36914-0.10645,0.5752c-0.0708,0.20703-0.16846,0.39551-0.29248,0.56641
		c-0.12354,0.17188-0.26855,0.31348-0.43359,0.4248c-0.16553,0.1123-0.34863,0.16895-0.54883,0.16895
		c-0.20117,0-0.4458-0.05078-0.73535-0.15039c-0.28906-0.10059-0.52832-0.2334-0.7168-0.39844
		c-0.08301-0.07129-0.16846-0.17188-0.25684-0.30176c-0.08887-0.12988-0.17139-0.25879-0.24805-0.38965
		c-0.07715-0.12988-0.14795-0.25-0.2124-0.3623c-0.06494-0.1123-0.11523-0.18652-0.15088-0.22168
		c-0.05908-0.01172-0.12354-0.02051-0.19434-0.02637c-0.07129-0.00586-0.13623-0.00879-0.19482-0.00879
		c-0.60254,0-1.17529,0.15332-1.71777,0.45996c-0.54346,0.30762-1.05127,0.68164-1.52344,1.125
		c-0.47217,0.44238-0.90576,0.91504-1.30127,1.41602c-0.396,0.50195-0.74121,0.9541-1.03613,1.35547
		c-0.23633,0.95605-0.49902,1.97461-0.78809,3.05469c-0.28955,1.08008-0.57568,2.21094-0.85889,3.39062v0.44336
		c0,0.35449-0.01172,0.71387-0.03516,1.08008c-0.02393,0.36621-0.09473,0.69043-0.21289,0.97363
		c-0.12988,0.17773-0.31592,0.32812-0.55762,0.45215c-0.24219,0.12402-0.52246,0.18555-0.84131,0.18555
		c-0.49561,0-0.86768-0.16211-1.11572-0.48633c-0.24805-0.3252-0.37158-0.70605-0.37158-1.14258
		C409.37207,204.79395,409.40137,204.58789,409.46045,204.375z"/>
	<path class="st0" d="M442.68359,203.06445c0.09375,0,0.17969,0.01172,0.25586,0.03613
		c0.07715,0.02344,0.16211,0.0498,0.25684,0.0791s0.20117,0.05664,0.31934,0.08008s0.27148,0.03516,0.45996,0.03516
		c0.55469,0,1.17188-0.05859,1.85059-0.17676s1.31934-0.27148,1.92188-0.46094c0.60156-0.18848,1.11816-0.4043,1.5498-0.64648
		c0.43066-0.24121,0.67578-0.49219,0.73438-0.75195c0.03516-0.1416,0.05371-0.26562,0.05371-0.37207
		c0-0.20117-0.09766-0.39258-0.29297-0.57617c-0.19434-0.18262-0.43945-0.35645-0.73438-0.52246
		c-0.2959-0.16504-0.61426-0.31836-0.95605-0.45996c-0.34277-0.1416-0.66211-0.27148-0.95703-0.38965l-0.60156-0.24805
		c-0.30762-0.11816-0.6084-0.2627-0.90332-0.43359s-0.56934-0.36914-0.82324-0.59375
		c-0.25391-0.22363-0.47852-0.48633-0.67285-0.78809c-0.19531-0.30078-0.33984-0.64648-0.43457-1.03516
		c-0.04688-0.16602-0.08594-0.33105-0.11523-0.49609s-0.04395-0.34277-0.04395-0.53125c0-0.30664,0.10352-0.6582,0.30957-1.05371
		c0.20703-0.39551,0.48438-0.78809,0.83301-1.17773c0.34766-0.38965,0.74316-0.76172,1.18652-1.11621
		c0.44238-0.35352,0.90527-0.64844,1.38965-0.88477c0.35449-0.24805,0.69629-0.47266,1.02734-0.67285
		c0.33008-0.20117,0.66406-0.37207,1.00098-0.51367c0.33594-0.1416,0.67871-0.25391,1.02637-0.33691
		c0.34863-0.08203,0.71777-0.12402,1.10742-0.12402c0.35352,0,0.7373,0.01758,1.15039,0.05371
		c0.41406,0.03516,0.79102,0.11816,1.13379,0.24707c0.34277,0.13086,0.62891,0.32227,0.85938,0.57617
		c0.22949,0.25391,0.34473,0.59277,0.34473,1.01855c0,0.12988-0.01758,0.30078-0.05273,0.5127
		c-0.03516,0.21289-0.09473,0.42578-0.17773,0.6377c-0.08203,0.21289-0.18262,0.39551-0.30078,0.54883
		c-0.11816,0.1543-0.25977,0.23047-0.4248,0.23047c-0.27148,0-0.49609-0.05273-0.67285-0.15918s-0.33691-0.22168-0.47852-0.3457
		s-0.28906-0.23828-0.44238-0.34473s-0.34277-0.15918-0.56641-0.15918c-0.27246,0-0.58789,0.0498-0.94824,0.15039
		c-0.35938,0.10059-0.72852,0.23633-1.10645,0.40723s-0.74707,0.36914-1.10645,0.59277
		c-0.36035,0.22461-0.68555,0.45508-0.97461,0.69043c-0.28906,0.23633-0.52246,0.46973-0.69922,0.7002
		s-0.26562,0.43945-0.26562,0.62891c0,0.2002,0.06445,0.36523,0.19434,0.49512s0.29492,0.24219,0.49609,0.33691
		c0.25977,0.1416,0.55762,0.2832,0.89453,0.4248s0.67578,0.2832,1.01855,0.4248c0.3418,0.1416,0.67578,0.2832,1,0.42578
		c0.3252,0.1416,0.60547,0.27148,0.8418,0.38867c0.31836,0.16602,0.60449,0.32812,0.8584,0.4873s0.46973,0.33398,0.64648,0.52246
		c0.17676,0.18945,0.3125,0.40137,0.40723,0.6377s0.1416,0.51367,0.1416,0.83203c0,0.1543-0.01172,0.30762-0.03516,0.46094
		s-0.05957,0.33008-0.10645,0.53125c-0.03516,0.17676-0.09766,0.38379-0.18555,0.61914
		c-0.08887,0.23633-0.18359,0.46973-0.2832,0.7002c-0.10059,0.22949-0.2041,0.43652-0.31055,0.61914
		c-0.10645,0.18359-0.19434,0.30469-0.26562,0.36328c-0.45996,0.4248-1.00293,0.82324-1.62891,1.19531
		s-1.27832,0.69727-1.95703,0.97461s-1.35742,0.49902-2.03613,0.66406c-0.67969,0.16504-1.30176,0.24805-1.86914,0.24805
		c-0.2832,0-0.5957-0.05664-0.93848-0.16895c-0.3418-0.11133-0.6582-0.25977-0.94727-0.44238s-0.53125-0.39258-0.72559-0.62891
		c-0.19531-0.23633-0.29297-0.47168-0.29297-0.70801c0-0.11816,0.03613-0.25098,0.10645-0.39844
		c0.07129-0.14746,0.15918-0.2832,0.26562-0.40723s0.22168-0.23047,0.3457-0.31934
		C442.46191,203.10938,442.57715,203.06445,442.68359,203.06445z"/>
	<path class="st0" d="M457.43457,199.41699c0.17676-0.7207,0.45117-1.48535,0.82324-2.29395s0.8584-1.62598,1.46094-2.45215
		c0.60156-0.82617,1.3252-1.63574,2.16895-2.42676c0.84473-0.79102,1.82129-1.52832,2.93164-2.21289
		c0.17676-0.10645,0.44824-0.22168,0.81445-0.3457c0.36523-0.12402,0.74316-0.19727,1.13281-0.22168
		c0.46094-0.49609,1.08105-0.74316,1.85938-0.74316c0.9209,0,1.69727,0.23242,2.3291,0.69922s1.1543,1.10059,1.56738,1.90332
		c0.12988,0.25977,0.25098,0.51367,0.36328,0.76172c0.11133,0.24805,0.20605,0.51074,0.2832,0.78809
		c0.07617,0.27734,0.13867,0.5752,0.18555,0.89453c0.04688,0.31836,0.07129,0.67871,0.07129,1.08008
		c0,0.93262-0.14844,1.88281-0.44336,2.85156c-0.29492,0.96777-0.71387,1.91211-1.25684,2.83301s-1.20117,1.80371-1.97461,2.64746
		c-0.77344,0.84473-1.63281,1.60254-2.57715,2.27539c-0.63672,0.46094-1.34277,0.81738-2.11621,1.07129
		s-1.6377,0.38086-2.59375,0.38086c-0.90918,0-1.69727-0.12109-2.36426-0.3623c-0.66699-0.24219-1.22168-0.58789-1.66504-1.03613
		c-0.44238-0.44922-0.77344-0.98633-0.99121-1.61133c-0.21875-0.62598-0.32812-1.32227-0.32812-2.08984
		C457.11523,201.06348,457.22168,200.2666,457.43457,199.41699z M460.37402,199.64648
		c-0.07129,0.27246-0.12109,0.5293-0.15039,0.77051c-0.03027,0.24219-0.04492,0.47559-0.04492,0.7002
		c0,0.38867,0.05078,0.75195,0.15137,1.08887c0.09961,0.33594,0.26172,0.62598,0.48633,0.86719
		c0.22461,0.24219,0.50488,0.43164,0.8418,0.56738c0.33594,0.13574,0.74609,0.20312,1.23047,0.20312
		c0.89746,0,1.73242-0.22656,2.50586-0.68164c0.77344-0.4541,1.46094-1.02441,2.06348-1.70898
		c0.60156-0.68457,1.10645-1.41992,1.51367-2.20508s0.69336-1.50781,0.85938-2.16895
		c0.10547-0.41309,0.19727-0.80273,0.27441-1.16895c0.07617-0.36621,0.11426-0.70215,0.11426-1.00977
		c0-0.30664-0.05566-0.59277-0.16797-0.8584s-0.25684-0.56348-0.43359-0.89453c-0.10645-0.2002-0.21289-0.41016-0.31836-0.62891
		c-0.10645-0.21777-0.20117-0.43359-0.28418-0.64648c-0.09473,0.16602-0.19434,0.31055-0.30078,0.43457
		s-0.26562,0.23633-0.47852,0.33594c-0.21191,0.10059-0.50195,0.19238-0.86719,0.27441
		c-0.36621,0.08301-0.84473,0.1543-1.43457,0.21289c-0.38965,0.12988-0.78516,0.33105-1.18652,0.60254
		s-0.79395,0.58984-1.17773,0.95605s-0.75,0.76172-1.09766,1.18652c-0.34863,0.4248-0.66113,0.8584-0.93848,1.30176
		c-0.27832,0.44238-0.51953,0.87598-0.72656,1.30176C460.60156,198.90332,460.45605,199.29297,460.37402,199.64648z"/>
	<path class="st0" d="M476.45312,205.03027c0.35449-1.38086,0.69727-2.66797,1.02734-3.86035
		c0.33105-1.19238,0.65234-2.33496,0.96582-3.42676c0.3125-1.0918,0.61621-2.15137,0.91113-3.17871s0.5791-2.07227,0.85059-3.13477
		c0.10645-0.41309,0.16797-0.81152,0.18555-1.19531s0.07422-0.78223,0.16895-1.19531
		c0.04688-0.1416,0.13281-0.26855,0.25586-0.38086c0.12402-0.1123,0.2627-0.20898,0.41699-0.29199
		c0.15332-0.08301,0.31543-0.14746,0.48633-0.19531c0.1709-0.04688,0.33398-0.07031,0.4873-0.07031
		c0.33008,0,0.60449,0.03809,0.82324,0.11523s0.39551,0.17969,0.53125,0.30957s0.23047,0.28613,0.2832,0.46973
		c0.05371,0.18262,0.08008,0.38672,0.08008,0.61035c0,0.40137-0.06543,0.80566-0.19434,1.21289
		c-0.13086,0.4082-0.29004,0.85352-0.47852,1.33789c0.55469-0.43652,1.12402-0.85059,1.70898-1.24023
		c0.58398-0.38965,1.18652-0.73145,1.80664-1.02734c0.61914-0.29492,1.25391-0.53125,1.90332-0.70801
		s1.32227-0.26562,2.01855-0.26562c0.31934,0,0.6377,0.05078,0.95703,0.15039c0.31836,0.10059,0.60449,0.25684,0.8584,0.46973
		c0.25391,0.21191,0.46582,0.49023,0.6377,0.83203c0.1709,0.34277,0.26855,0.76172,0.29199,1.25781
		c0.50781-0.34277,1.0332-0.68848,1.57617-1.03613c0.54297-0.34863,1.09473-0.66113,1.65625-0.93848
		c0.56055-0.27734,1.12109-0.50195,1.68164-0.67285c0.56055-0.17188,1.10742-0.25684,1.63867-0.25684
		c0.79102,0,1.44336,0.10352,1.95703,0.30957c0.5127,0.20703,0.91992,0.48438,1.22168,0.83203
		c0.30078,0.34863,0.51367,0.75293,0.6377,1.21289c0.12402,0.46094,0.18555,0.95117,0.18555,1.4707
		c0,0.56641-0.05273,1.15039-0.15918,1.75293c-0.10645,0.60156-0.22461,1.1748-0.35449,1.71777
		c-0.34277,1.36914-0.72559,2.66504-1.15137,3.88672c-0.4248,1.22266-0.88477,2.45898-1.38086,3.70996
		c-0.11816,0.2959-0.24219,0.6084-0.37207,0.93945c-0.12988,0.33008-0.28027,0.63477-0.45117,0.91113
		c-0.17188,0.27832-0.37207,0.50781-0.60254,0.69141c-0.23047,0.18262-0.49902,0.27441-0.80566,0.27441
		c-0.69629,0-1.1748-0.11816-1.43457-0.35449s-0.38965-0.57227-0.38965-1.00977c0-0.11719,0.00586-0.25293,0.01758-0.40723
		c0.01172-0.15332,0.04199-0.30078,0.08887-0.44238c0.04688-0.17676,0.15332-0.43359,0.31836-0.77051
		c0.16602-0.33594,0.3457-0.69922,0.54102-1.08887c0.19434-0.38965,0.38574-0.78223,0.5752-1.17773
		c0.18848-0.39551,0.33008-0.74121,0.4248-1.03613c0.15332-0.50781,0.33398-1.09473,0.54004-1.76172
		c0.20703-0.66699,0.4043-1.33984,0.59375-2.01953c0.18848-0.67871,0.34473-1.32129,0.46875-1.92969
		s0.18652-1.10059,0.18652-1.47852c0-0.17773-0.01758-0.35449-0.05371-0.53125c-0.03516-0.17773-0.09668-0.33105-0.18555-0.46094
		s-0.21289-0.23633-0.37207-0.31836c-0.15918-0.08301-0.36328-0.12402-0.61133-0.12402c-0.35352,0-0.77637,0.10059-1.26562,0.30078
		c-0.49023,0.20117-0.99805,0.46387-1.52344,0.78809c-0.52539,0.3252-1.03613,0.69043-1.53125,1.09766
		c-0.49609,0.40723-0.9209,0.8125-1.27539,1.21387c-0.24805,0.2832-0.48438,0.5127-0.70801,0.69043
		c-0.22461,0.17676-0.44922,0.3125-0.67285,0.40723c-0.02441,0.04688-0.08301,0.20312-0.17773,0.46875
		s-0.20605,0.58496-0.33594,0.95703c-0.13086,0.37109-0.26562,0.77344-0.40723,1.2041s-0.27441,0.83203-0.39844,1.2041
		s-0.22754,0.68457-0.31055,0.93848s-0.12402,0.39258-0.12402,0.41602c-0.08203,0.33105-0.15332,0.66992-0.21191,1.01855
		c-0.05957,0.34863-0.1123,0.68164-0.16016,1c-0.04688,0.31934-0.09082,0.65918-0.13281,1.01855
		c-0.04102,0.36035-0.12305,0.69727-0.24707,1.00977s-0.31348,0.56934-0.56738,0.77051
		c-0.25391,0.2002-0.61035,0.30078-1.07129,0.30078c-0.23633,0-0.45117-0.05957-0.64648-0.17676
		c-0.19434-0.11816-0.3623-0.26855-0.50488-0.45215c-0.1416-0.18262-0.25391-0.38965-0.33594-0.62012
		c-0.08301-0.22949-0.12988-0.46289-0.1416-0.69922c0.27148-1.0625,0.53711-2.01855,0.79688-2.86914
		c0.25977-0.84961,0.51953-1.66406,0.7793-2.44336s0.51074-1.56152,0.75195-2.34668
		c0.24219-0.78516,0.48145-1.64941,0.71777-2.59375c0.05859-0.22461,0.10645-0.44629,0.1416-0.66504
		c0.03516-0.21777,0.05273-0.40918,0.05273-0.5752c0-0.2832-0.05859-0.5166-0.17676-0.69922s-0.3252-0.27441-0.62012-0.27441
		c-0.48438,0-0.96484,0.09668-1.44336,0.29199c-0.47754,0.19434-0.99414,0.49902-1.54883,0.91211
		c-0.55566,0.41309-1.17188,0.93848-1.85059,1.57617c-0.67969,0.6377-1.46094,1.39844-2.34668,2.28418
		c-0.09473,0.17676-0.21875,0.50781-0.37207,0.99219c-0.15332,0.4834-0.30957,0.99707-0.46875,1.54004
		c-0.16016,0.54395-0.30469,1.04785-0.43457,1.51465c-0.12988,0.46582-0.21191,0.77637-0.24805,0.92969
		c-0.12988,0.49609-0.21875,0.91211-0.26562,1.24805c-0.04688,0.33691-0.08789,0.64062-0.12402,0.91211
		c-0.02344,0.1416-0.05859,0.375-0.10547,0.69922c-0.04785,0.3252-0.13281,0.65332-0.25684,0.9834
		c-0.12402,0.33105-0.29883,0.62207-0.52246,0.87695c-0.22461,0.25293-0.51953,0.37988-0.88574,0.37988
		c-0.54297,0-0.98926-0.14746-1.33691-0.44238c-0.34863-0.29492-0.52246-0.66699-0.52246-1.11523
		c0-0.08301,0.00586-0.16016,0.01758-0.23047C476.41211,205.18945,476.42969,205.11328,476.45312,205.03027z"/>
	<path class="st0" d="M537.51562,207.20898c-0.73242,0-1.23438-0.16016-1.50586-0.47852s-0.40723-0.75586-0.40723-1.31055
		c0-0.29492,0.0293-0.61328,0.08887-0.95605c0.05859-0.34277,0.13574-0.69629,0.23047-1.0625
		c0.16504-0.62598,0.35059-1.24902,0.55762-1.86816c0.20605-0.62012,0.41309-1.24609,0.62012-1.87793
		c0.20605-0.63086,0.40723-1.2627,0.60156-1.89453c0.19531-0.63184,0.36914-1.2666,0.52246-1.90332
		c0.01172-0.05957,0.01758-0.13574,0.01758-0.23047c0-0.16504-0.04102-0.29492-0.12402-0.38965
		c-0.08203-0.09473-0.20605-0.1416-0.37109-0.1416c-0.25977,0-0.54004,0.05273-0.8418,0.15918
		c-0.30078,0.10645-0.55176,0.22461-0.75195,0.35449c-0.79199,0.53125-1.48535,1.05664-2.08105,1.57617
		c-0.59668,0.51953-1.14258,1.0625-1.63867,1.62891c-0.49512,0.56641-0.96484,1.17188-1.40723,1.81543
		c-0.44336,0.64355-0.90625,1.34863-1.39062,2.11621c-0.41309,0.76758-0.71973,1.41992-0.9209,1.95703
		s-0.38672,0.9707-0.55762,1.30176c-0.1709,0.33008-0.36328,0.56934-0.5752,0.7168
		c-0.21289,0.14746-0.53125,0.22168-0.95703,0.22168c-0.47168,0-0.80566-0.13574-1-0.40723
		c-0.19531-0.27246-0.29199-0.62598-0.29199-1.0625c0-0.34277,0.05273-0.72656,0.15918-1.15137l5.84375-23.41211
		c0.03516-0.1416,0.09473-0.29492,0.17676-0.45996c0.08301-0.16504,0.19531-0.31836,0.33691-0.46094
		c0.1416-0.1416,0.30957-0.25879,0.50488-0.35352c0.19434-0.09473,0.41602-0.1416,0.66406-0.1416
		c0.18848,0,0.38965,0.00879,0.60156,0.02637c0.21289,0.01758,0.4043,0.05273,0.57617,0.10645
		c0.1709,0.05273,0.3125,0.13867,0.4248,0.25684s0.16797,0.27148,0.16797,0.45996c0,0.04785-0.01172,0.14453-0.03516,0.29199
		c-0.02344,0.14844-0.05957,0.31641-0.10645,0.50488c-0.6377,2.5625-1.31934,5.23047-2.04492,8.00488
		c-0.72656,2.77441-1.46094,5.57812-2.20508,8.41211c0.71973-0.88574,1.46973-1.69727,2.24902-2.43555
		c0.7793-0.7373,1.5791-1.37207,2.39941-1.90332s1.6709-0.94824,2.5498-1.24902c0.87988-0.30078,1.79199-0.45117,2.73633-0.45117
		c0.60254,0,1.06836,0.19141,1.39941,0.5752c0.33008,0.38379,0.49609,0.87109,0.49609,1.46094
		c0,0.27148-0.03613,0.53711-0.10645,0.79688c-0.1416,0.54297-0.30176,1.07812-0.47852,1.60254
		c-0.17676,0.52539-0.36035,1.05371-0.54883,1.58496c-0.18945,0.53125-0.37793,1.07227-0.56641,1.62109
		c-0.18945,0.54883-0.35449,1.1123-0.49609,1.69043c-0.18945,0.74414-0.31934,1.4502-0.38965,2.11719
		c-0.07129,0.66699-0.11816,1.20117-0.1416,1.60254c-0.02344,0.3418-0.07715,0.67285-0.15918,0.99121
		c-0.08301,0.31934-0.2041,0.59961-0.36328,0.8418c-0.15918,0.24121-0.36035,0.43652-0.60254,0.58398
		S537.8457,207.20898,537.51562,207.20898z"/>
	<path class="st0" d="M544.98828,199.36328c0-0.50684,0.13574-0.93848,0.40723-1.29297
		c0.27148-0.35352,0.63184-0.58984,1.08105-0.70801c0.12988-0.25977,0.33008-0.61133,0.60156-1.05371
		s0.6084-0.92383,1.00977-1.44336s0.8584-1.04199,1.37207-1.56738s1.08008-1.00293,1.7002-1.43457
		c0.62012-0.43066,1.28711-0.78125,2.00098-1.05371c0.71484-0.27148,1.47266-0.40723,2.27637-0.40723
		c0.68457,0,1.28027,0.08301,1.78809,0.24805c0.50781,0.16602,0.92676,0.39551,1.25781,0.69043
		c0.33008,0.2959,0.57812,0.64648,0.74316,1.05371c0.16504,0.4082,0.24805,0.84766,0.24805,1.31934
		c0,0.40234-0.05273,0.78613-0.15918,1.15137c-0.16602,0.66113-0.47266,1.24023-0.9209,1.73535
		c-0.44922,0.49609-0.97754,0.92969-1.58496,1.30176c-0.6084,0.37207-1.26953,0.68164-1.9834,0.92969
		c-0.71484,0.24805-1.42871,0.45508-2.14258,0.62012c-0.71484,0.16504-1.40234,0.29199-2.06348,0.38086
		c-0.66113,0.08789-1.2334,0.15625-1.71777,0.20312c-0.10645,0.21289-0.19824,0.48145-0.27441,0.80566
		c-0.07715,0.3252-0.11523,0.64062-0.11523,0.94824c0,0.68457,0.27148,1.21582,0.81445,1.59375s1.29297,0.56641,2.24902,0.56641
		c0.55469,0,1.08594-0.0625,1.59375-0.18555c0.50781-0.12402,0.98926-0.28418,1.44336-0.47852
		c0.45508-0.19531,0.88281-0.40723,1.28418-0.6377s0.76758-0.45703,1.09766-0.68164c0.42578-0.2832,0.83008-0.52246,1.21387-0.7168
		c0.38281-0.19531,0.72266-0.29297,1.01758-0.29297s0.48438,0.07422,0.56738,0.22168
		c0.08203,0.14746,0.12305,0.30371,0.12305,0.46973c0,0.09375-0.00293,0.18555-0.00879,0.27441
		c-0.00586,0.08789-0.01465,0.16211-0.02637,0.2207c-0.05859,0.30762-0.17676,0.61426-0.35352,0.9209
		c-0.17773,0.30762-0.40234,0.57324-0.67383,0.79688c-1.22754,0.96875-2.4873,1.65918-3.78027,2.07227
		s-2.67188,0.62012-4.13574,0.62012c-0.2832,0-0.61621-0.01758-1-0.05371c-0.38379-0.03516-0.78223-0.10645-1.19531-0.21191
		c-0.41309-0.10645-0.82129-0.25977-1.22168-0.46094c-0.40234-0.2002-0.75879-0.46582-1.07227-0.79688
		c-0.3125-0.33008-0.56641-0.7373-0.76074-1.22168c-0.19531-0.48438-0.29297-1.06836-0.29297-1.75293
		c0-0.55469,0.07715-1.1748,0.23047-1.85938c-0.15332-0.02441-0.29785-0.10352-0.43359-0.23926
		S544.98828,199.62305,544.98828,199.36328z M556.07422,194.45801c0.02344-0.05859,0.03613-0.1123,0.03613-0.15918
		s0-0.10059,0-0.15918c0-0.31934-0.11816-0.55859-0.35449-0.71777s-0.51953-0.23926-0.84961-0.23926
		c-0.52051,0-1.03027,0.13672-1.53223,0.40723c-0.50195,0.27246-0.97363,0.61133-1.41699,1.01855
		c-0.44238,0.40723-0.83496,0.84473-1.17773,1.31055c-0.34277,0.4668-0.6084,0.88867-0.79688,1.2666
		c0.85059-0.07129,1.62988-0.18652,2.33789-0.3457s1.3252-0.36035,1.85059-0.60156c0.52539-0.24219,0.9502-0.51367,1.27539-0.81543
		C555.77051,195.12207,555.97949,194.80078,556.07422,194.45801z"/>
	<path class="st0" d="M562.96289,200.125c0.15332-0.6377,0.35645-1.27539,0.61035-1.91211
		c0.25391-0.6377,0.57031-1.26953,0.94824-1.89551c0.37695-0.625,0.82617-1.23633,1.3457-1.83301
		c0.51953-0.5957,1.12695-1.16504,1.82422-1.70898c0.47168-0.37695,0.9707-0.73438,1.49609-1.07129
		c0.52539-0.33594,1.05957-0.62891,1.60254-0.87598c0.54297-0.24805,1.08887-0.44629,1.63867-0.59375
		c0.54883-0.14746,1.08887-0.22168,1.62012-0.22168c0.38965,0,0.73438,0.0332,1.03613,0.09766
		c0.30078,0.06543,0.58691,0.15723,0.8584,0.27441c0.11816-0.41309,0.43359-1.52246,0.94727-3.3291s1.14258-4.32129,1.88672-7.54395
		c0.12891-0.31934,0.3125-0.58496,0.54883-0.79688c0.23535-0.21289,0.51953-0.31934,0.84961-0.31934
		c0.23633,0,0.4668,0.02148,0.69043,0.0625c0.22461,0.04102,0.42578,0.12402,0.60254,0.24805s0.31836,0.29199,0.4248,0.50488
		c0.10645,0.21191,0.15918,0.48926,0.15918,0.83203l-3.55957,14.2207c-0.10547,0.40137-0.20605,0.94141-0.30078,1.62012
		s-0.18262,1.39648-0.26562,2.15137c-0.08301,0.75586-0.14746,1.50293-0.19434,2.24023
		c-0.04785,0.73828-0.07129,1.37305-0.07129,1.9043c0,0.66113-0.07715,1.31641-0.23047,1.96484
		c-0.07031,0.28418-0.14453,0.52246-0.2207,0.71777c-0.07715,0.19434-0.18066,0.35449-0.31055,0.47754
		c-0.12988,0.12402-0.29199,0.21289-0.48633,0.2666c-0.19531,0.05273-0.44043,0.0791-0.73535,0.0791
		c-0.34277,0-0.6084-0.03516-0.79688-0.10645c-0.18848-0.07031-0.33105-0.16797-0.4248-0.29199
		c-0.09473-0.12402-0.15039-0.26562-0.16797-0.4248c-0.01855-0.15918-0.03027-0.33008-0.03613-0.51367
		c-0.00586-0.18262-0.01758-0.37207-0.03516-0.56641c-0.01758-0.19531-0.06836-0.38086-0.15039-0.55859
		c-0.1416,0.09473-0.33691,0.21875-0.58496,0.37207c-0.24707,0.1543-0.49805,0.31055-0.75195,0.46973
		s-0.49316,0.30664-0.71777,0.44238c-0.22363,0.13574-0.38965,0.2334-0.49512,0.29199c-0.27246,0.1543-0.5791,0.31641-0.9209,0.4873
		c-0.34277,0.1709-0.71191,0.33105-1.10742,0.47852s-0.80859,0.26855-1.23926,0.3623
		c-0.43164,0.09473-0.86523,0.14258-1.30176,0.14258c-0.53125,0-1.04785-0.08887-1.5498-0.26562
		c-0.50195-0.17773-0.9502-0.44922-1.3457-0.81543c-0.39551-0.36523-0.71094-0.8291-0.94727-1.38965
		s-0.35449-1.21875-0.35449-1.97461c0-0.27148,0.01465-0.54004,0.04492-0.80566
		C562.82422,200.75391,562.87988,200.45605,562.96289,200.125z M566.02637,199.9834c-0.09473,0.35449-0.1416,0.69629-0.1416,1.02734
		c0,0.3418,0.0293,0.66406,0.08887,0.96484c0.05859,0.30078,0.16797,0.56348,0.32715,0.78809s0.37207,0.4043,0.6377,0.54004
		s0.61133,0.2041,1.03613,0.2041c0.23535,0,0.48926-0.04199,0.76172-0.12402c0.27148-0.08301,0.54004-0.18652,0.80566-0.31055
		s0.51367-0.25391,0.74316-0.38965c0.23047-0.13477,0.42773-0.25684,0.59375-0.3623
		c0.44824-0.29492,0.86426-0.58496,1.24805-0.86816s0.72949-0.58984,1.03613-0.9209c0.30664-0.33008,0.5752-0.69922,0.80566-1.10645
		s0.41602-0.87695,0.55762-1.4082c0.11816-0.47168,0.22168-0.90332,0.31055-1.29297c0.08789-0.38965,0.16797-0.77051,0.23926-1.1416
		c0.07031-0.37207,0.13477-0.75293,0.19434-1.14258c0.05859-0.38965,0.11816-0.82031,0.17676-1.29297
		c-0.05859-0.07031-0.13867-0.13867-0.23828-0.20312c-0.10059-0.06543-0.25098-0.09766-0.45215-0.09766
		c-0.47266,0-0.99121,0.0791-1.55859,0.23926c-0.56641,0.15918-1.14844,0.38672-1.74414,0.68164s-1.18066,0.65527-1.75293,1.08008
		c-0.57324,0.4248-1.10449,0.90039-1.59375,1.42578c-0.49023,0.52539-0.91797,1.10059-1.28418,1.72656
		S566.19141,199.28711,566.02637,199.9834z"/>
	<path class="st0" d="M583.31055,204.375c0.15332-0.82617,0.33008-1.73535,0.53125-2.72656
		c0.2002-0.99219,0.40723-1.99512,0.62012-3.01074c0.21191-1.01562,0.41895-2.0127,0.61914-2.99316
		c0.20117-0.97949,0.37207-1.87695,0.51367-2.69141c-0.01172-0.11816-0.01758-0.22168-0.01758-0.31055
		c0-0.08789,0-0.18555,0-0.29199c0-0.36523,0.02344-0.73145,0.07129-1.09766c0.04688-0.36621,0.11133-0.70215,0.19434-1.00977
		c0.12988-0.44824,0.27441-0.75293,0.43359-0.91211c0.16016-0.15918,0.41699-0.23926,0.77051-0.23926
		c0.34277,0,0.61719,0.06836,0.82422,0.2041c0.20605,0.13574,0.36816,0.31641,0.48633,0.54004
		c0.11816,0.22461,0.19531,0.48145,0.23047,0.77051s0.05273,0.58691,0.05273,0.89453c0,0.16504-0.00586,0.34766-0.01758,0.54883
		s-0.01758,0.36035-0.01758,0.47754c0.33008-0.3418,0.68164-0.69336,1.05371-1.05371
		c0.37207-0.35938,0.76758-0.68457,1.18652-0.97363s0.86133-0.52832,1.32812-0.7168c0.4668-0.18945,0.95312-0.2832,1.46094-0.2832
		c0.20117,0,0.39844,0.01758,0.59375,0.05273c0.19434,0.03516,0.3916,0.08301,0.59277,0.1416
		c0.23633,0.05957,0.48145,0.13867,0.73535,0.23926s0.49805,0.23926,0.73438,0.41602
		c0.38965,0.29492,0.71777,0.66406,0.9834,1.10645c0.26562,0.44336,0.39844,0.89453,0.39844,1.35547
		c0,0.17676-0.03613,0.36914-0.10645,0.5752c-0.07129,0.20703-0.16797,0.39551-0.29199,0.56641
		c-0.12402,0.17188-0.26855,0.31348-0.43457,0.4248c-0.16504,0.1123-0.34766,0.16895-0.54883,0.16895
		c-0.2002,0-0.44531-0.05078-0.73438-0.15039c-0.29004-0.10059-0.52832-0.2334-0.71777-0.39844
		c-0.08203-0.07129-0.16797-0.17188-0.25684-0.30176c-0.08789-0.12988-0.1709-0.25879-0.24805-0.38965
		c-0.07617-0.12988-0.14746-0.25-0.21191-0.3623c-0.06543-0.1123-0.11523-0.18652-0.15039-0.22168
		c-0.05957-0.01172-0.12402-0.02051-0.19531-0.02637c-0.07031-0.00586-0.13574-0.00879-0.19434-0.00879
		c-0.60254,0-1.1748,0.15332-1.71777,0.45996c-0.54297,0.30762-1.05078,0.68164-1.52344,1.125
		c-0.47168,0.44238-0.90625,0.91504-1.30176,1.41602c-0.39551,0.50195-0.74023,0.9541-1.03516,1.35547
		c-0.23633,0.95605-0.49902,1.97461-0.78809,3.05469c-0.29004,1.08008-0.57617,2.21094-0.85938,3.39062v0.44336
		c0,0.35449-0.01172,0.71387-0.03516,1.08008c-0.02441,0.36621-0.09473,0.69043-0.21289,0.97363
		c-0.12988,0.17773-0.31543,0.32812-0.55762,0.45215s-0.52246,0.18555-0.84082,0.18555c-0.49609,0-0.86816-0.16211-1.11621-0.48633
		c-0.24805-0.3252-0.37207-0.70605-0.37207-1.14258C583.22168,204.79395,583.25098,204.58789,583.31055,204.375z"/>
	<path class="st0" d="M598.15039,199.36328c0-0.50684,0.13574-0.93848,0.40723-1.29297
		c0.27148-0.35352,0.63184-0.58984,1.08105-0.70801c0.12988-0.25977,0.33008-0.61133,0.60156-1.05371
		s0.6084-0.92383,1.00977-1.44336s0.8584-1.04199,1.37207-1.56738s1.08008-1.00293,1.7002-1.43457
		c0.62012-0.43066,1.28711-0.78125,2.00098-1.05371c0.71484-0.27148,1.47266-0.40723,2.27637-0.40723
		c0.68457,0,1.28027,0.08301,1.78809,0.24805c0.50781,0.16602,0.92676,0.39551,1.25781,0.69043
		c0.33008,0.2959,0.57812,0.64648,0.74316,1.05371c0.16504,0.4082,0.24805,0.84766,0.24805,1.31934
		c0,0.40234-0.05273,0.78613-0.15918,1.15137c-0.16602,0.66113-0.47266,1.24023-0.9209,1.73535
		c-0.44922,0.49609-0.97754,0.92969-1.58496,1.30176c-0.6084,0.37207-1.26953,0.68164-1.9834,0.92969
		c-0.71484,0.24805-1.42871,0.45508-2.14258,0.62012c-0.71484,0.16504-1.40234,0.29199-2.06348,0.38086
		c-0.66113,0.08789-1.2334,0.15625-1.71777,0.20312c-0.10645,0.21289-0.19824,0.48145-0.27441,0.80566
		c-0.07715,0.3252-0.11523,0.64062-0.11523,0.94824c0,0.68457,0.27148,1.21582,0.81445,1.59375s1.29297,0.56641,2.24902,0.56641
		c0.55469,0,1.08594-0.0625,1.59375-0.18555c0.50781-0.12402,0.98926-0.28418,1.44336-0.47852
		c0.45508-0.19531,0.88281-0.40723,1.28418-0.6377s0.76758-0.45703,1.09766-0.68164c0.42578-0.2832,0.83008-0.52246,1.21387-0.7168
		c0.38281-0.19531,0.72266-0.29297,1.01758-0.29297s0.48438,0.07422,0.56738,0.22168
		c0.08203,0.14746,0.12305,0.30371,0.12305,0.46973c0,0.09375-0.00293,0.18555-0.00879,0.27441
		c-0.00586,0.08789-0.01465,0.16211-0.02637,0.2207c-0.05859,0.30762-0.17676,0.61426-0.35352,0.9209
		c-0.17773,0.30762-0.40234,0.57324-0.67383,0.79688c-1.22754,0.96875-2.4873,1.65918-3.78027,2.07227
		s-2.67188,0.62012-4.13574,0.62012c-0.2832,0-0.61621-0.01758-1-0.05371c-0.38379-0.03516-0.78223-0.10645-1.19531-0.21191
		c-0.41309-0.10645-0.82129-0.25977-1.22168-0.46094c-0.40234-0.2002-0.75879-0.46582-1.07227-0.79688
		c-0.3125-0.33008-0.56641-0.7373-0.76074-1.22168c-0.19531-0.48438-0.29297-1.06836-0.29297-1.75293
		c0-0.55469,0.07715-1.1748,0.23047-1.85938c-0.15332-0.02441-0.29785-0.10352-0.43359-0.23926
		S598.15039,199.62305,598.15039,199.36328z M609.23633,194.45801c0.02344-0.05859,0.03613-0.1123,0.03613-0.15918
		s0-0.10059,0-0.15918c0-0.31934-0.11816-0.55859-0.35449-0.71777s-0.51953-0.23926-0.84961-0.23926
		c-0.52051,0-1.03027,0.13672-1.53223,0.40723c-0.50195,0.27246-0.97363,0.61133-1.41699,1.01855
		c-0.44238,0.40723-0.83496,0.84473-1.17773,1.31055c-0.34277,0.4668-0.6084,0.88867-0.79688,1.2666
		c0.85059-0.07129,1.62988-0.18652,2.33789-0.3457s1.3252-0.36035,1.85059-0.60156c0.52539-0.24219,0.9502-0.51367,1.27539-0.81543
		C608.93262,195.12207,609.1416,194.80078,609.23633,194.45801z"/>
	<path class="st0" d="M616.6748,204.375c0.15332-0.82617,0.33008-1.73535,0.53125-2.72656
		c0.2002-0.99219,0.40723-1.99512,0.62012-3.01074c0.21191-1.01562,0.41895-2.0127,0.61914-2.99316
		c0.20117-0.97949,0.37207-1.87695,0.51367-2.69141c-0.01172-0.11816-0.01758-0.22168-0.01758-0.31055
		c0-0.08789,0-0.18555,0-0.29199c0-0.36523,0.02344-0.73145,0.07129-1.09766c0.04688-0.36621,0.11133-0.70215,0.19434-1.00977
		c0.12988-0.44824,0.27441-0.75293,0.43359-0.91211c0.16016-0.15918,0.41699-0.23926,0.77051-0.23926
		c0.34277,0,0.61719,0.06836,0.82422,0.2041c0.20605,0.13574,0.36816,0.31641,0.48633,0.54004
		c0.11816,0.22461,0.19531,0.48145,0.23047,0.77051s0.05273,0.58691,0.05273,0.89453c0,0.16504-0.00586,0.34766-0.01758,0.54883
		s-0.01758,0.36035-0.01758,0.47754c0.33008-0.3418,0.68164-0.69336,1.05371-1.05371
		c0.37207-0.35938,0.76758-0.68457,1.18652-0.97363s0.86133-0.52832,1.32812-0.7168c0.4668-0.18945,0.95312-0.2832,1.46094-0.2832
		c0.20117,0,0.39844,0.01758,0.59375,0.05273c0.19434,0.03516,0.3916,0.08301,0.59277,0.1416
		c0.23633,0.05957,0.48145,0.13867,0.73535,0.23926s0.49805,0.23926,0.73438,0.41602
		c0.38965,0.29492,0.71777,0.66406,0.9834,1.10645c0.26562,0.44336,0.39844,0.89453,0.39844,1.35547
		c0,0.17676-0.03613,0.36914-0.10645,0.5752c-0.07129,0.20703-0.16797,0.39551-0.29199,0.56641
		c-0.12402,0.17188-0.26855,0.31348-0.43457,0.4248c-0.16504,0.1123-0.34766,0.16895-0.54883,0.16895
		c-0.2002,0-0.44531-0.05078-0.73438-0.15039c-0.29004-0.10059-0.52832-0.2334-0.71777-0.39844
		c-0.08203-0.07129-0.16797-0.17188-0.25684-0.30176c-0.08789-0.12988-0.1709-0.25879-0.24805-0.38965
		c-0.07617-0.12988-0.14746-0.25-0.21191-0.3623c-0.06543-0.1123-0.11523-0.18652-0.15039-0.22168
		c-0.05957-0.01172-0.12402-0.02051-0.19531-0.02637c-0.07031-0.00586-0.13574-0.00879-0.19434-0.00879
		c-0.60254,0-1.1748,0.15332-1.71777,0.45996c-0.54297,0.30762-1.05078,0.68164-1.52344,1.125
		c-0.47168,0.44238-0.90625,0.91504-1.30176,1.41602c-0.39551,0.50195-0.74023,0.9541-1.03516,1.35547
		c-0.23633,0.95605-0.49902,1.97461-0.78809,3.05469c-0.29004,1.08008-0.57617,2.21094-0.85938,3.39062v0.44336
		c0,0.35449-0.01172,0.71387-0.03516,1.08008c-0.02441,0.36621-0.09473,0.69043-0.21289,0.97363
		c-0.12988,0.17773-0.31543,0.32812-0.55762,0.45215s-0.52246,0.18555-0.84082,0.18555c-0.49609,0-0.86816-0.16211-1.11621-0.48633
		c-0.24805-0.3252-0.37207-0.70605-0.37207-1.14258C616.58594,204.79395,616.61523,204.58789,616.6748,204.375z"/>
	<path class="st0" d="M649.48926,205.03027c0.35449-1.38086,0.69727-2.66797,1.02734-3.86035
		c0.33105-1.19238,0.65234-2.33496,0.96582-3.42676c0.3125-1.0918,0.61621-2.15137,0.91113-3.17871s0.5791-2.07227,0.85059-3.13477
		c0.10645-0.41309,0.16797-0.81152,0.18555-1.19531s0.07422-0.78223,0.16895-1.19531
		c0.04688-0.1416,0.13281-0.26855,0.25586-0.38086c0.12402-0.1123,0.2627-0.20898,0.41699-0.29199
		c0.15332-0.08301,0.31543-0.14746,0.48633-0.19531c0.1709-0.04688,0.33398-0.07031,0.4873-0.07031
		c0.33008,0,0.60449,0.03809,0.82324,0.11523s0.39551,0.17969,0.53125,0.30957s0.23047,0.28613,0.2832,0.46973
		c0.05371,0.18262,0.08008,0.38672,0.08008,0.61035c0,0.40137-0.06543,0.80566-0.19434,1.21289
		c-0.13086,0.4082-0.29004,0.85352-0.47852,1.33789c0.55469-0.43652,1.12402-0.85059,1.70898-1.24023
		c0.58398-0.38965,1.18652-0.73145,1.80664-1.02734c0.61914-0.29492,1.25391-0.53125,1.90332-0.70801
		s1.32227-0.26562,2.01855-0.26562c0.31934,0,0.6377,0.05078,0.95703,0.15039c0.31836,0.10059,0.60449,0.25684,0.8584,0.46973
		c0.25391,0.21191,0.46582,0.49023,0.6377,0.83203c0.1709,0.34277,0.26855,0.76172,0.29199,1.25781
		c0.50781-0.34277,1.0332-0.68848,1.57617-1.03613c0.54297-0.34863,1.09473-0.66113,1.65625-0.93848
		c0.56055-0.27734,1.12109-0.50195,1.68164-0.67285c0.56055-0.17188,1.10742-0.25684,1.63867-0.25684
		c0.79102,0,1.44336,0.10352,1.95703,0.30957c0.5127,0.20703,0.91992,0.48438,1.22168,0.83203
		c0.30078,0.34863,0.51367,0.75293,0.6377,1.21289c0.12402,0.46094,0.18555,0.95117,0.18555,1.4707
		c0,0.56641-0.05273,1.15039-0.15918,1.75293c-0.10645,0.60156-0.22461,1.1748-0.35449,1.71777
		c-0.34277,1.36914-0.72559,2.66504-1.15137,3.88672c-0.4248,1.22266-0.88477,2.45898-1.38086,3.70996
		c-0.11816,0.2959-0.24219,0.6084-0.37207,0.93945c-0.12988,0.33008-0.28027,0.63477-0.45117,0.91113
		c-0.17188,0.27832-0.37207,0.50781-0.60254,0.69141c-0.23047,0.18262-0.49902,0.27441-0.80566,0.27441
		c-0.69629,0-1.1748-0.11816-1.43457-0.35449s-0.38965-0.57227-0.38965-1.00977c0-0.11719,0.00586-0.25293,0.01758-0.40723
		c0.01172-0.15332,0.04199-0.30078,0.08887-0.44238c0.04688-0.17676,0.15332-0.43359,0.31836-0.77051
		c0.16602-0.33594,0.3457-0.69922,0.54102-1.08887c0.19434-0.38965,0.38574-0.78223,0.5752-1.17773
		c0.18848-0.39551,0.33008-0.74121,0.4248-1.03613c0.15332-0.50781,0.33398-1.09473,0.54004-1.76172
		c0.20703-0.66699,0.4043-1.33984,0.59375-2.01953c0.18848-0.67871,0.34473-1.32129,0.46875-1.92969
		s0.18652-1.10059,0.18652-1.47852c0-0.17773-0.01758-0.35449-0.05371-0.53125c-0.03516-0.17773-0.09668-0.33105-0.18555-0.46094
		s-0.21289-0.23633-0.37207-0.31836c-0.15918-0.08301-0.36328-0.12402-0.61133-0.12402c-0.35352,0-0.77637,0.10059-1.26562,0.30078
		c-0.49023,0.20117-0.99805,0.46387-1.52344,0.78809c-0.52539,0.3252-1.03613,0.69043-1.53125,1.09766
		c-0.49609,0.40723-0.9209,0.8125-1.27539,1.21387c-0.24805,0.2832-0.48438,0.5127-0.70801,0.69043
		c-0.22461,0.17676-0.44922,0.3125-0.67285,0.40723c-0.02441,0.04688-0.08301,0.20312-0.17773,0.46875
		s-0.20605,0.58496-0.33594,0.95703c-0.13086,0.37109-0.26562,0.77344-0.40723,1.2041s-0.27441,0.83203-0.39844,1.2041
		s-0.22754,0.68457-0.31055,0.93848s-0.12402,0.39258-0.12402,0.41602c-0.08203,0.33105-0.15332,0.66992-0.21191,1.01855
		c-0.05957,0.34863-0.1123,0.68164-0.16016,1c-0.04688,0.31934-0.09082,0.65918-0.13281,1.01855
		c-0.04102,0.36035-0.12305,0.69727-0.24707,1.00977s-0.31348,0.56934-0.56738,0.77051
		c-0.25391,0.2002-0.61035,0.30078-1.07129,0.30078c-0.23633,0-0.45117-0.05957-0.64648-0.17676
		c-0.19434-0.11816-0.3623-0.26855-0.50488-0.45215c-0.1416-0.18262-0.25391-0.38965-0.33594-0.62012
		c-0.08301-0.22949-0.12988-0.46289-0.1416-0.69922c0.27148-1.0625,0.53711-2.01855,0.79688-2.86914
		c0.25977-0.84961,0.51953-1.66406,0.7793-2.44336s0.51074-1.56152,0.75195-2.34668
		c0.24219-0.78516,0.48145-1.64941,0.71777-2.59375c0.05859-0.22461,0.10645-0.44629,0.1416-0.66504
		c0.03516-0.21777,0.05273-0.40918,0.05273-0.5752c0-0.2832-0.05859-0.5166-0.17676-0.69922s-0.3252-0.27441-0.62012-0.27441
		c-0.48438,0-0.96484,0.09668-1.44336,0.29199c-0.47754,0.19434-0.99414,0.49902-1.54883,0.91211
		c-0.55566,0.41309-1.17188,0.93848-1.85059,1.57617c-0.67969,0.6377-1.46094,1.39844-2.34668,2.28418
		c-0.09473,0.17676-0.21875,0.50781-0.37207,0.99219c-0.15332,0.4834-0.30957,0.99707-0.46875,1.54004
		c-0.16016,0.54395-0.30469,1.04785-0.43457,1.51465c-0.12988,0.46582-0.21191,0.77637-0.24805,0.92969
		c-0.12988,0.49609-0.21875,0.91211-0.26562,1.24805c-0.04688,0.33691-0.08789,0.64062-0.12402,0.91211
		c-0.02344,0.1416-0.05859,0.375-0.10547,0.69922c-0.04785,0.3252-0.13281,0.65332-0.25684,0.9834
		c-0.12402,0.33105-0.29883,0.62207-0.52246,0.87695c-0.22461,0.25293-0.51953,0.37988-0.88574,0.37988
		c-0.54297,0-0.98926-0.14746-1.33691-0.44238c-0.34863-0.29492-0.52246-0.66699-0.52246-1.11523
		c0-0.08301,0.00586-0.16016,0.01758-0.23047C649.44824,205.18945,649.46582,205.11328,649.48926,205.03027z"/>
	<path class="st0" d="M680.58691,202.95801c0.17676-0.68457,0.38965-1.48145,0.6377-2.39062
		c0.24805-0.9082,0.51074-1.87109,0.78809-2.88672c0.27734-1.01465,0.55762-2.05371,0.84082-3.11621s0.54883-2.0957,0.79688-3.09961
		c0.01172-0.04688,0.05371-0.12598,0.12402-0.23828c0.07129-0.1123,0.1709-0.22461,0.30078-0.33691s0.29492-0.20898,0.49609-0.29199
		s0.43652-0.12402,0.70898-0.12402c0.2002,0,0.39453,0.02051,0.58398,0.06152c0.18848,0.04199,0.35742,0.10352,0.50488,0.18652
		c0.14746,0.08203,0.26562,0.19141,0.35449,0.32715c0.08789,0.13574,0.13281,0.29199,0.13281,0.46973c0,0.03516,0,0.07324,0,0.11523
		c0,0.04102-0.00684,0.0791-0.01855,0.11523l-0.49512,1.87695c-0.55566,2.10156-1.11914,4.20898-1.69141,6.32227
		c-0.57324,2.11328-1.13086,4.23242-1.67383,6.35742c-0.02344,0.07031-0.05957,0.15918-0.10645,0.26562
		s-0.1123,0.21191-0.19434,0.31836c-0.08301,0.10645-0.18359,0.19531-0.30078,0.26562
		c-0.11816,0.07129-0.25977,0.10645-0.42578,0.10645c-0.30664,0-0.57812-0.06152-0.81445-0.18555s-0.43652-0.28125-0.60156-0.46973
		c-0.16602-0.18848-0.29004-0.39551-0.37207-0.62012c-0.08301-0.22363-0.12402-0.43652-0.12402-0.63672
		c0-0.05957,0-0.1123,0-0.16016c0-0.04688,0.01172-0.09961,0.03516-0.15918L680.58691,202.95801z M685.20898,184.62988
		c0.05859-0.24805,0.16504-0.5498,0.31836-0.90332c0.15332-0.35449,0.42578-0.67285,0.81543-0.95605
		c0.18848-0.10645,0.41895-0.2041,0.69043-0.29297c0.27148-0.08789,0.46582-0.13281,0.58398-0.13281
		s0.23926,0.04199,0.36328,0.12402c0.12402,0.08301,0.2334,0.17188,0.32812,0.26562
		c0.11719,0.11816,0.22949,0.24805,0.33594,0.38965c0.29492,0.02441,0.4873,0.12988,0.5752,0.31934
		c0.08887,0.18848,0.13281,0.41309,0.13281,0.67285c0,0.18848-0.01758,0.36035-0.05273,0.51367s-0.06543,0.27734-0.08887,0.37109
		c-0.07031,0.24805-0.20605,0.47559-0.40723,0.68262c-0.2002,0.20605-0.43066,0.38379-0.69043,0.53125
		s-0.53125,0.2627-0.81445,0.34473c-0.2832,0.08301-0.53125,0.12402-0.74414,0.12402c-0.27148,0-0.48145-0.04688-0.62891-0.1416
		s-0.33301-0.29492-0.55762-0.60156c-0.12988-0.17773-0.20312-0.31641-0.2207-0.41699
		c-0.01855-0.09961-0.02734-0.18555-0.02734-0.25684c0-0.12891,0.00879-0.24414,0.02734-0.34473
		C685.16504,184.82129,685.18555,184.72461,685.20898,184.62988z"/>
	<path class="st0" d="M702.37012,191.66016c-0.41406,0-0.85645,0.09766-1.3291,0.29199
		c-0.47168,0.19531-0.96191,0.45801-1.46973,0.78809c-0.50781,0.33105-1.02441,0.70605-1.54883,1.125
		c-0.52539,0.41895-1.04199,0.85254-1.5498,1.30078c-0.25977,0.22461-0.50781,0.42871-0.74414,0.61133
		c-0.23633,0.18359-0.47168,0.32227-0.70801,0.41602c-0.16602,0.27148-0.33984,0.62891-0.52246,1.07129
		c-0.18359,0.44336-0.36328,0.92773-0.54004,1.45215c-0.17773,0.52539-0.3457,1.0625-0.50488,1.6123
		c-0.15918,0.54883-0.29199,1.05957-0.39844,1.53125c-0.05957,0.24805-0.10645,0.49023-0.1416,0.72656
		s-0.07715,0.48633-0.12402,0.75195s-0.10352,0.55273-0.16797,0.85938c-0.06543,0.30664-0.14551,0.64941-0.23926,1.02734
		c-0.05957,0.22363-0.15332,0.4043-0.2832,0.54004s-0.26562,0.23926-0.40723,0.30957
		c-0.1416,0.07129-0.27832,0.11523-0.40723,0.13281c-0.13086,0.01758-0.23047,0.02637-0.30176,0.02637
		c-0.44824,0-0.81445-0.10645-1.09766-0.31836c-0.2832-0.21289-0.4248-0.62598-0.4248-1.24023
		c0-0.16504,0.00586-0.33887,0.01758-0.52148c0.01172-0.18359,0.04688-0.38672,0.10645-0.61133
		c0.25879-1.12207,0.50977-2.13086,0.75195-3.02832s0.4873-1.72949,0.73535-2.49707s0.49902-1.49023,0.75293-2.16895
		c0.25293-0.67871,0.51367-1.36426,0.7793-2.05469s0.54199-1.40527,0.83203-2.14258
		c0.28906-0.73828,0.59863-1.55566,0.92969-2.45312c0.07031-0.2002,0.25684-0.36816,0.55762-0.50488
		c0.30078-0.13477,0.62305-0.20312,0.96484-0.20312c0.44922,0,0.81738,0.10059,1.10742,0.30078
		c0.28906,0.20117,0.43359,0.49023,0.43359,0.86816c0,0.03516-0.01172,0.10059-0.03516,0.19434
		c-0.02441,0.09473-0.05957,0.19531-0.10645,0.30078l-0.7793,1.8418c0.49609-0.38965,1.0127-0.77832,1.5498-1.16797
		s1.08887-0.74121,1.65527-1.05371c0.56738-0.31348,1.13672-0.56738,1.70898-0.76172
		c0.57324-0.19531,1.13672-0.29199,1.69141-0.29199c1.13379,0,2.01855,0.30371,2.65625,0.91211
		c0.6377,0.60742,0.95703,1.54883,0.95703,2.82422c0,0.73242-0.12793,1.56445-0.38086,2.49707
		c-0.25391,0.93262-0.57324,1.93359-0.95703,3.00195s-0.79688,2.18945-1.23926,3.36426s-0.85352,2.37012-1.23047,3.58594
		c-0.10645,0.33105-0.21582,0.6084-0.32812,0.83301c-0.1123,0.22363-0.24512,0.4043-0.39844,0.54004
		c-0.15332,0.13477-0.33398,0.23242-0.54004,0.29199c-0.20703,0.05859-0.45801,0.08789-0.75293,0.08789
		c-0.45996,0-0.7793-0.08496-0.95605-0.25586c-0.17676-0.17188-0.26562-0.44629-0.26562-0.82422
		c0-0.33008,0.0498-0.73438,0.15039-1.21289s0.24219-1.00293,0.42578-1.57617c0.18262-0.57227,0.39453-1.18359,0.63672-1.83301
		c0.24219-0.64844,0.50488-1.31055,0.78809-1.9834c0.22461-0.54297,0.44531-1.08594,0.66406-1.62891
		s0.41309-1.06836,0.58496-1.57617c0.1709-0.50781,0.30957-0.99219,0.41602-1.45215s0.15918-0.88574,0.15918-1.27539
		c0-0.36523-0.0791-0.6875-0.23926-0.96484C703.10449,191.79883,702.80664,191.66016,702.37012,191.66016z"/>
	<path class="st0" d="M722.39844,191.66016c-0.41406,0-0.85645,0.09766-1.3291,0.29199
		c-0.47168,0.19531-0.96191,0.45801-1.46973,0.78809c-0.50781,0.33105-1.02441,0.70605-1.54883,1.125
		c-0.52539,0.41895-1.04199,0.85254-1.5498,1.30078c-0.25977,0.22461-0.50781,0.42871-0.74414,0.61133
		c-0.23633,0.18359-0.47168,0.32227-0.70801,0.41602c-0.16602,0.27148-0.33984,0.62891-0.52246,1.07129
		c-0.18359,0.44336-0.36328,0.92773-0.54004,1.45215c-0.17773,0.52539-0.3457,1.0625-0.50488,1.6123
		c-0.15918,0.54883-0.29199,1.05957-0.39844,1.53125c-0.05957,0.24805-0.10645,0.49023-0.1416,0.72656
		s-0.07715,0.48633-0.12402,0.75195s-0.10352,0.55273-0.16797,0.85938c-0.06543,0.30664-0.14551,0.64941-0.23926,1.02734
		c-0.05957,0.22363-0.15332,0.4043-0.2832,0.54004s-0.26562,0.23926-0.40723,0.30957
		c-0.1416,0.07129-0.27832,0.11523-0.40723,0.13281c-0.13086,0.01758-0.23047,0.02637-0.30176,0.02637
		c-0.44824,0-0.81445-0.10645-1.09766-0.31836c-0.2832-0.21289-0.4248-0.62598-0.4248-1.24023
		c0-0.16504,0.00586-0.33887,0.01758-0.52148c0.01172-0.18359,0.04688-0.38672,0.10645-0.61133
		c0.25879-1.12207,0.50977-2.13086,0.75195-3.02832s0.4873-1.72949,0.73535-2.49707s0.49902-1.49023,0.75293-2.16895
		c0.25293-0.67871,0.51367-1.36426,0.7793-2.05469s0.54199-1.40527,0.83203-2.14258
		c0.28906-0.73828,0.59863-1.55566,0.92969-2.45312c0.07031-0.2002,0.25684-0.36816,0.55762-0.50488
		c0.30078-0.13477,0.62305-0.20312,0.96484-0.20312c0.44922,0,0.81738,0.10059,1.10742,0.30078
		c0.28906,0.20117,0.43359,0.49023,0.43359,0.86816c0,0.03516-0.01172,0.10059-0.03516,0.19434
		c-0.02441,0.09473-0.05957,0.19531-0.10645,0.30078l-0.7793,1.8418c0.49609-0.38965,1.0127-0.77832,1.5498-1.16797
		s1.08887-0.74121,1.65527-1.05371c0.56738-0.31348,1.13672-0.56738,1.70898-0.76172
		c0.57324-0.19531,1.13672-0.29199,1.69141-0.29199c1.13379,0,2.01855,0.30371,2.65625,0.91211
		c0.6377,0.60742,0.95703,1.54883,0.95703,2.82422c0,0.73242-0.12793,1.56445-0.38086,2.49707
		c-0.25391,0.93262-0.57324,1.93359-0.95703,3.00195s-0.79688,2.18945-1.23926,3.36426s-0.85352,2.37012-1.23047,3.58594
		c-0.10645,0.33105-0.21582,0.6084-0.32812,0.83301c-0.1123,0.22363-0.24512,0.4043-0.39844,0.54004
		c-0.15332,0.13477-0.33398,0.23242-0.54004,0.29199c-0.20703,0.05859-0.45801,0.08789-0.75293,0.08789
		c-0.45996,0-0.7793-0.08496-0.95605-0.25586c-0.17676-0.17188-0.26562-0.44629-0.26562-0.82422
		c0-0.33008,0.0498-0.73438,0.15039-1.21289s0.24219-1.00293,0.42578-1.57617c0.18262-0.57227,0.39453-1.18359,0.63672-1.83301
		c0.24219-0.64844,0.50488-1.31055,0.78809-1.9834c0.22461-0.54297,0.44531-1.08594,0.66406-1.62891
		s0.41309-1.06836,0.58496-1.57617c0.1709-0.50781,0.30957-0.99219,0.41602-1.45215s0.15918-0.88574,0.15918-1.27539
		c0-0.36523-0.0791-0.6875-0.23926-0.96484C723.13281,191.79883,722.83496,191.66016,722.39844,191.66016z"/>
	<path class="st0" d="M729.60547,199.36328c0-0.50684,0.13574-0.93848,0.40723-1.29297
		c0.27148-0.35352,0.63184-0.58984,1.08105-0.70801c0.12988-0.25977,0.33008-0.61133,0.60156-1.05371
		s0.6084-0.92383,1.00977-1.44336s0.8584-1.04199,1.37207-1.56738s1.08008-1.00293,1.7002-1.43457
		c0.62012-0.43066,1.28711-0.78125,2.00098-1.05371c0.71484-0.27148,1.47266-0.40723,2.27637-0.40723
		c0.68457,0,1.28027,0.08301,1.78809,0.24805c0.50781,0.16602,0.92676,0.39551,1.25781,0.69043
		c0.33008,0.2959,0.57812,0.64648,0.74316,1.05371c0.16504,0.4082,0.24805,0.84766,0.24805,1.31934
		c0,0.40234-0.05273,0.78613-0.15918,1.15137c-0.16602,0.66113-0.47266,1.24023-0.9209,1.73535
		c-0.44922,0.49609-0.97754,0.92969-1.58496,1.30176c-0.6084,0.37207-1.26953,0.68164-1.9834,0.92969
		c-0.71484,0.24805-1.42871,0.45508-2.14258,0.62012c-0.71484,0.16504-1.40234,0.29199-2.06348,0.38086
		c-0.66113,0.08789-1.2334,0.15625-1.71777,0.20312c-0.10645,0.21289-0.19824,0.48145-0.27441,0.80566
		c-0.07715,0.3252-0.11523,0.64062-0.11523,0.94824c0,0.68457,0.27148,1.21582,0.81445,1.59375s1.29297,0.56641,2.24902,0.56641
		c0.55469,0,1.08594-0.0625,1.59375-0.18555c0.50781-0.12402,0.98926-0.28418,1.44336-0.47852
		c0.45508-0.19531,0.88281-0.40723,1.28418-0.6377s0.76758-0.45703,1.09766-0.68164c0.42578-0.2832,0.83008-0.52246,1.21387-0.7168
		c0.38281-0.19531,0.72266-0.29297,1.01758-0.29297s0.48438,0.07422,0.56738,0.22168
		c0.08203,0.14746,0.12305,0.30371,0.12305,0.46973c0,0.09375-0.00293,0.18555-0.00879,0.27441
		c-0.00586,0.08789-0.01465,0.16211-0.02637,0.2207c-0.05859,0.30762-0.17676,0.61426-0.35352,0.9209
		c-0.17773,0.30762-0.40234,0.57324-0.67383,0.79688c-1.22754,0.96875-2.4873,1.65918-3.78027,2.07227
		s-2.67188,0.62012-4.13574,0.62012c-0.2832,0-0.61621-0.01758-1-0.05371c-0.38379-0.03516-0.78223-0.10645-1.19531-0.21191
		c-0.41309-0.10645-0.82129-0.25977-1.22168-0.46094c-0.40234-0.2002-0.75879-0.46582-1.07227-0.79688
		c-0.3125-0.33008-0.56641-0.7373-0.76074-1.22168c-0.19531-0.48438-0.29297-1.06836-0.29297-1.75293
		c0-0.55469,0.07715-1.1748,0.23047-1.85938c-0.15332-0.02441-0.29785-0.10352-0.43359-0.23926
		S729.60547,199.62305,729.60547,199.36328z M740.69141,194.45801c0.02344-0.05859,0.03613-0.1123,0.03613-0.15918
		s0-0.10059,0-0.15918c0-0.31934-0.11816-0.55859-0.35449-0.71777s-0.51953-0.23926-0.84961-0.23926
		c-0.52051,0-1.03027,0.13672-1.53223,0.40723c-0.50195,0.27246-0.97363,0.61133-1.41699,1.01855
		c-0.44238,0.40723-0.83496,0.84473-1.17773,1.31055c-0.34277,0.4668-0.6084,0.88867-0.79688,1.2666
		c0.85059-0.07129,1.62988-0.18652,2.33789-0.3457s1.3252-0.36035,1.85059-0.60156c0.52539-0.24219,0.9502-0.51367,1.27539-0.81543
		C740.3877,195.12207,740.59668,194.80078,740.69141,194.45801z"/>
	<path class="st0" d="M750.30762,200.69141c0-0.99121,0.1123-2.02148,0.33691-3.08984s0.46094-2.09277,0.70801-3.07227
		c-0.30664-0.01172-0.61914-0.05957-0.93848-0.1416c-0.31836-0.08301-0.6084-0.19531-0.86719-0.33691
		c-0.25977-0.1416-0.47266-0.31543-0.6377-0.52246c-0.16602-0.20605-0.24805-0.44531-0.24805-0.7168
		c0-0.10645,0.02344-0.24219,0.07129-0.40723c0.04688-0.16602,0.11426-0.32812,0.20312-0.4873s0.2041-0.29492,0.3457-0.40723
		s0.30078-0.16895,0.47754-0.16895h2.37305c0.22461,0,0.37793-0.09668,0.46094-0.29199
		c0.08203-0.19434,0.14746-0.38672,0.19434-0.5752c0.15332-0.68457,0.29785-1.27832,0.43457-1.78027
		c0.13477-0.50098,0.25-0.92676,0.34473-1.27441c0.09473-0.34863,0.16797-0.63184,0.22168-0.85059
		c0.05273-0.21777,0.0791-0.3916,0.0791-0.52246c0-0.15332-0.00586-0.30078-0.01758-0.44238s-0.01758-0.33691-0.01758-0.58398
		v-0.17773c0-0.09375,0.00879-0.21777,0.02637-0.37207c0.01855-0.15332,0.07422-0.37109,0.16895-0.65527
		c0.07031-0.22363,0.2002-0.43652,0.38965-0.63672c0.18848-0.20117,0.46582-0.30176,0.83203-0.30176
		c0.31836,0,0.58984,0.06543,0.81445,0.19531s0.40723,0.30078,0.54883,0.51367c0.1416,0.21191,0.24805,0.4541,0.31934,0.72559
		c0.07031,0.27148,0.10547,0.54297,0.10547,0.81445c0,0.2959-0.0293,0.56152-0.08789,0.79688l-1.29297,4.95898
		c0.6377-0.10645,1.2041-0.20605,1.7002-0.30078s0.99121-0.18945,1.4873-0.2832c0.54297-0.10645,1.0127-0.20703,1.4082-0.30176
		c0.39551-0.09375,0.73438-0.17383,1.01855-0.23926c0.2832-0.06445,0.52148-0.11719,0.7168-0.15918
		c0.19434-0.04102,0.35645-0.06152,0.4873-0.06152c0.18848,0,0.38086,0.01465,0.5752,0.04395s0.36621,0.08008,0.51367,0.15039
		c0.14746,0.07129,0.26855,0.17188,0.36328,0.30176c0.09375,0.12988,0.1416,0.30078,0.1416,0.5127
		c0,0.28418-0.05664,0.53516-0.16895,0.75293c-0.1123,0.21875-0.25684,0.40723-0.43359,0.56641
		c-0.17676,0.16016-0.37793,0.29004-0.60156,0.38965c-0.22461,0.10059-0.44922,0.1748-0.67383,0.22168
		c-0.18848,0.03516-0.43359,0.08887-0.73438,0.15918c-0.30078,0.07129-0.63184,0.14844-0.99219,0.23047
		c-0.36035,0.08301-0.73438,0.1709-1.12402,0.26562s-0.76758,0.18945-1.13379,0.2832
		c-0.54297,0.1416-1.00684,0.25977-1.38965,0.35449c-0.38379,0.09473-0.71191,0.16504-0.9834,0.21191
		c-0.27148,0.04785-0.49316,0.08301-0.66406,0.10645c-0.1709,0.02441-0.30957,0.03613-0.41602,0.03613
		c-0.22461,0.67285-0.41895,1.33398-0.58398,1.9834c-0.16602,0.64941-0.30469,1.25391-0.41602,1.81445
		c-0.1123,0.56152-0.19531,1.0625-0.24805,1.50586c-0.05371,0.44238-0.08008,0.78809-0.08008,1.03613
		c0,0.31836,0.0293,0.62207,0.08887,0.91113c0.05859,0.29004,0.15918,0.54102,0.30078,0.75293
		c0.1416,0.21289,0.33301,0.38086,0.5752,0.50488s0.5459,0.18555,0.91211,0.18555c0.62598,0,1.24023-0.1709,1.8418-0.51367
		c0.60254-0.3418,1.17773-0.77539,1.72656-1.30078s1.06836-1.10156,1.55859-1.72656
		c0.49023-0.62598,0.94141-1.22266,1.35449-1.78906c0.1416-0.21289,0.3252-0.31836,0.5498-0.31836
		c0.07031,0,0.15625,0.01172,0.25684,0.03516c0.09961,0.02344,0.19727,0.06445,0.29199,0.12402
		c0.09375,0.05859,0.17383,0.13574,0.23926,0.23047c0.06445,0.09375,0.09668,0.20605,0.09668,0.33594
		c0,0.09473-0.00586,0.16602-0.01758,0.21289c-0.18848,0.73145-0.48145,1.4668-0.87695,2.2041
		c-0.39551,0.73828-0.7998,1.47949-1.21289,2.22266c-0.1416,0.25977-0.32715,0.51367-0.55762,0.76172
		s-0.48145,0.4873-0.75293,0.7168c-0.27148,0.23047-0.55469,0.44922-0.84961,0.65527
		c-0.29492,0.20703-0.57324,0.39258-0.83203,0.55859c-0.44922,0.2832-0.93848,0.47754-1.4707,0.58398
		c-0.53125,0.10645-1.04395,0.15918-1.54004,0.15918c-0.76758,0-1.44922-0.13867-2.0459-0.41602
		c-0.5957-0.27734-1.09766-0.65527-1.50488-1.13281c-0.40723-0.47852-0.71777-1.03613-0.92969-1.67383
		C750.41406,202.1084,750.30762,201.42383,750.30762,200.69141z"/>
</g>
<path class="st1" d="M52.90797,154.76396c-0.41499-4.33025-0.74422-9.10428-1.35458-13.8421
	c-1.10314-8.56281-5.33938-15.5132-11.52253-21.35355c-2.18457-2.06346-2.52434-1.94894-3.49081,0.9688
	c-4.10073,12.37997-2.48189,24.11847,4.12022,35.23804c1.77048,2.98192,3.6698,5.89575,5.66214,8.73398
	c1.05526,1.50331,1.13488,2.77975,0.56858,4.55334c-3.65751,11.45503-7.14927,22.963-10.69666,34.45322
	c-0.17598,0.57004-0.36377,1.1364-0.68157,2.12674c-1.30496-4.35594-2.40938-8.2298-3.62841-12.0672
	c-1.77911-5.60059-4.60645-10.61108-8.93671-14.63551c-1.71389-1.59282-2.37236-3.32935-2.36576-5.66127
	c0.10023-35.42233-0.10361-70.84721,0.2538-106.26653c0.24601-24.38026,18.1076-50.01989,46.18673-57.20037
	c32.35567-8.27409,67.60693,12.53042,74.39237,47.40613c1.43874,7.39474,1.29723,15.09989,1.82274,22.66625
	c0.07083,1.01978,0.44104,2.63314-1.59821,2.11444c-1.47282-0.37463-3.64247-0.18724-2.85005-2.87092
	c0.14046-0.47571,0.23659-0.96436,0.36121-1.44494c2.13589-8.23608,0.22575-8.53059-5.87358-8.81666
	c-1.70549-0.07999-2.30077-0.85621-2.42267-2.42163c-0.07619-0.97832-0.53877-1.93006-0.58968-2.90614
	c-0.15927-3.0534-2.27877-4.411-4.66681-3.79541c-5.17661,1.33443-8.17002-0.09002-9.5229-5.34881
	c-0.60973-2.37006-2.08556-1.99226-3.62815-0.5029c-8.1208,7.8406-11.63001,17.48108-11.10368,28.62914
	c0.14719,3.11775,0.74299,6.22249,1.25974,9.31199c0.40968,2.44933,0.02842,4.40845-1.95145,6.21632
	c-5.60767,5.12051-11.04893,10.42336-16.91283,15.99361c0.85436-4.24315,1.88464-8.00191,2.32899-11.82872
	c1.19484-10.29012-1.84499-19.60859-7.18218-28.26551c-1.17329-1.90309-2.09991-1.74588-3.03408,0.30789
	c-5.76667,12.67799-7.05612,25.49821-0.22672,38.14292c2.69409,4.98812,2.32159,8.32864-1.45887,12.94274
	C66.44803,134.76074,59.81363,145.06802,52.90797,154.76396z"/>
<path class="st1" d="M97.95367,104.82189c0.21985-0.24657,0.46091-0.47746,0.65642-0.74202
	c3.6869-4.98933,7.7561-6.79731,14.56226-5.31897c8.43864,1.83294,16.98827-0.91673,25.01547-4.25887
	c1.06587-0.44377,2.06021-1.05764,3.09616-1.5758c1.24342-0.62194,1.86354-0.14712,1.91452,1.16564
	c0.04494,1.15733,0.04082,2.31694,0.04114,3.47554c0.01154,42.04854,0.02107,84.09705,0.03059,126.14558
	c0.00023,0.99327-0.06525,1.99112,0.00758,2.9789c0.17885,2.42651-1.05411,3.258-3.29944,3.12216
	c-1.15443-0.06985-2.31639-0.0157-3.47495-0.01587c-31.44675-0.00453-62.89349-0.00896-94.34023-0.0128
	c-0.82752-0.00009-1.65748-0.03334-2.48207,0.0175c-2.04216,0.1259-3.15948-0.64467-2.95506-2.85181
	c0.07615-0.82216,0.08069-1.65443,0.06492-2.48109c-0.0904-4.73997,1.56124-7.54903,6.59671-9.34261
	c11.3497-4.04265,20.58679-11.18404,26.41387-22.05785c0.96909-1.80841,1.29057-3.96399,1.91132-5.95914
	c-2.06781,0.06219-4.21758-0.22173-6.18957,0.2453c-9.55207,2.26227-17.13076,7.59396-22.96172,15.43855
	c-1.26265,1.69873-2.36576,3.51607-4.1429,6.17842c2.32436-12.25435,5.27968-23.20375,9.56274-33.75769
	c2.17152-5.35085,4.83998-10.49904,7.04494-15.83754c1.21955-2.95271,3.04283-3.69884,6.13522-3.4586
	c4.4015,0.34192,8.89115,0.41667,13.27456-0.04536c11.29539-1.1906,20.07002-7.1147,27.26559-15.57858
	c2.50541-2.94702,2.21804-3.22488-1.67915-3.92941c-13.35679-2.41464-25.13981,1.08154-35.70086,9.29646
	c-0.76622,0.59599-1.33968,1.4399-2.00276,2.16853l0.11613-0.10568c2.68822-4.29533,5.0191-8.87308,8.14137-12.82539
	c5.92051-7.49446,12.28215-14.64107,18.48717-21.90943c2.14339-2.51071,4.5194-3.02243,7.87379-1.90842
	c5.11274,1.69796,10.43038,3.01436,15.76343,3.76102c9.4184,1.31866,17.91692-1.57633,25.55663-7.03973
	c2.26608-1.62055,2.13884-2.2925-0.48355-3.86026c-6.95464-4.15774-14.56256-5.22524-22.377-3.82095
	c-4.97992,0.89491-9.79456,2.70171-14.69355,4.06272c-0.92906,0.25811-1.90625,0.34289-2.86122,0.50764
	C97.84217,104.69199,97.95367,104.82188,97.95367,104.82189z"/>
<path class="st2" d="M105.8565,93.45823c-0.29016-2.6489-0.68552-4.22498-0.596-5.77301
	c0.55621-9.61849,4.38313-17.45877,12.72154-22.74258c0.69366-0.43955,1.39668-1.01775,2.1637-1.15829
	c2.03294-0.37245,5.43979-1.36639,5.89649-0.62726c1.15303,1.86601,1.79646,4.80385,1.15524,6.8441
	c-0.95185,3.02877-2.74453,6.08744-4.96802,8.36208C117.30386,83.40225,111.88733,87.96114,105.8565,93.45823z"/>
<path class="st1" d="M32.26651,209.74168c-9.66335-6.0321-16.05262-13.87271-19.36775-24.14799
	c-0.80654-2.49989-1.37081-5.09004-1.85835-7.67422c-0.16831-0.89212,0.23465-1.89211,0.37666-2.84282
	c0.91258,0.216,2.05591,0.1564,2.69863,0.69475c3.13457,2.62553,6.62067,5.03459,9.0857,8.21545
	C28.8814,191.31631,31.24717,200.00122,32.26651,209.74168z"/>
<path class="st1" d="M98.4305,139.29849c-10.07801,11.31061-22.0813,14.89716-36.33222,13.6813
	C67.54787,143.83829,82.5367,138.20735,98.4305,139.29849z"/>
<path class="st1" d="M21.01424,204.99355c2.32594,1.86066,4.37901,3.45728,6.38247,5.11391
	c7.4467,6.15752,7.76843,7.10323,6.55103,16.49199c-0.28313,2.18353-1.13455,3.06755-3.43032,3.20531
	c-9.87115,0.59239-9.87001,0.66411-9.87315-9.28888c-0.00151-4.78345,0.01019-9.56688,0.0239-14.35031
	C20.6686,206.00848,20.75652,205.85165,21.01424,204.99355z"/>
<path class="st1" d="M47.83691,160.13307c-4.66379-5.39511-7.50933-11.72624-9.17141-18.65845
	c-1.17061-4.88234-1.41747-9.77789-0.02566-14.66341c0.20769-0.72904,0.58871-1.40865,0.88955-2.11114
	c0.65622,0.42025,1.48459,0.70422,1.94181,1.28201c4.18753,5.29188,6.86652,11.31681,7.39432,18.02506
	c0.41051,5.21758,0.0821,10.4933,0.0821,15.74318C48.57739,159.87791,48.20715,160.00549,47.83691,160.13307z"/>
<path class="st2" d="M116.25195,96.15288c-2.18679-0.45979-4.37357-0.91956-6.56037-1.37935
	c1.49017-1.62926,2.90359-3.33751,4.48402-4.87389c6.31197-6.13603,13.86375-7.54614,22.29532-5.90801
	c2.71109,0.52671,2.33606,1.61968,1.00529,3.13509c-4.56409,5.1974-10.4695,7.76755-17.2154,8.58109
	c-1.29587,0.15627-2.6267,0.02244-3.94139,0.02244C116.29692,95.87112,116.27444,96.01199,116.25195,96.15288z"/>
<path class="st1" d="M99.5257,108.40903c10.38812-5.03342,20.5088-6.80894,31.19107-4.11698
	c1.20949,0.30479,2.30469,1.06333,3.45288,1.61147c-1.05811,0.89268-1.98727,2.05193-3.19458,2.63615
	C120.7079,113.50807,110.44304,112.43825,99.5257,108.40903z"/>
<path class="st1" d="M79.77487,114.06001c-5.75505-11.70416-7.38449-23.03953-2.084-35.29367
	C83.84193,90.29871,84.72573,101.63814,79.77487,114.06001z"/>
<path class="st1" d="M40.50171,213.23796c2.18269-8.37593,7.95611-13.88452,14.94353-18.26653
	c2.62847-1.64839,5.64648-2.6929,8.53617-3.89406c0.68285-0.28387,1.56457-0.08914,2.3548-0.11456
	c-0.19105,0.87602-0.17393,1.87447-0.60563,2.60898c-3.9535,6.72675-9.64342,11.69231-16.34944,15.48961
	c-2.85586,1.61711-5.96304,2.79021-8.95599,4.16508C40.42516,213.22649,40.50171,213.23796,40.50171,213.23796z"/>
<path class="st2" d="M124.658,80.68104c1.59435-2.44308,2.93331-4.50245,4.28213-6.55534
	c0.26947-0.41015,0.53535-1.09627,0.87311-1.14255c1.86937-0.25618,3.79376-0.59553,5.6217-0.34341
	c0.48418,0.06679,1.097,2.17988,0.94099,3.24985c-0.27026,1.85367-0.48537,4.07201-3.24031,4.20708
	C130.51486,80.22517,127.89897,80.45304,124.658,80.68104z"/>
<path class="st2" d="M104.81387,74.57658c1.40884-6.19395,3.44852-10.78405,6.54401-14.84663
	c0.60245-0.79067,1.96685-1.0005,2.9798-1.47826c0.63023,1.59891,2.1549,3.17208,0.50553,4.92058
	c-1.11406,1.18102-2.60263,2.02215-3.65155,3.24823C109.18171,68.76992,107.3655,71.28518,104.81387,74.57658z"/>
<path class="st2" d="M137.51413,90.87633c1.27301-1.26978,2.51945-2.56815,3.83583-3.79121
	c0.3752-0.34859,0.95357-0.47841,1.43877-0.70856c-0.14395,0.66297-0.06799,1.66887-0.47122,1.92756
	c-1.48027,0.94971-3.11969,1.65124-4.69922,2.4462L137.51413,90.87633z"/>
<path class="st3" d="M137.61829,90.75032c-0.06407,0.09978-0.12814,0.19957-0.19221,0.29936
	c0.02936-0.05779,0.05872-0.11556,0.08806-0.17336L137.61829,90.75032z"/>
<path class="st3" d="M97.84217,104.69199c-0.26393,0.42587-0.52786,0.85172-0.79178,1.27759l0.09296-0.04465
	c0.2701-0.36767,0.54021-0.73535,0.81032-1.10303C97.95367,104.82188,97.84217,104.69199,97.84217,104.69199z"/>
<path class="st3" d="M97.05039,105.96957c-0.08519-0.00465-0.17038-0.0093-0.25557-0.01394
	c0.11618-0.01023,0.23235-0.02048,0.34853-0.03072L97.05039,105.96957z"/>
<path class="st3" d="M62.31897,147.83047c-0.08707-0.05072-0.17414-0.10143-0.26122-0.15213
	c0.12578,0.01547,0.25157,0.03098,0.37735,0.04645L62.31897,147.83047z"/>
<polygon class="st3" points="40.42516,213.22649 40.25097,213.38159 40.50171,213.23796 "/>
<g>
	<g>
		<path class="st4" d="M230.16895,151.06152c-6.9375,0-13.26807-1.2168-18.98975-3.64746
			c-5.72314-2.43066-10.62891-5.85449-14.7207-10.27246c-4.09131-4.41699-7.24902-9.75391-9.47266-16.01074
			c-2.22363-6.25537-3.33545-13.2085-3.33545-20.85742c0-7.70801,1.12598-14.64551,3.37988-20.81348
			c2.25293-6.1665,5.41064-11.42969,9.47266-15.7876c4.06104-4.3584,8.90869-7.70801,14.54297-10.05127
			c5.63281-2.34131,11.85889-3.51318,18.67822-3.51318c5.33691,0,10.31787,0.66699,14.94287,2.00146
			c4.62549,1.33398,8.74609,3.23242,12.36377,5.69238c3.61621,2.46143,6.61084,5.41162,8.9834,8.8501
			c2.37109,3.43945,4.00244,7.26416,4.89209,11.47412h-7.64941c-0.47559-2.84619-1.61621-5.52881-3.42432-8.0498
			c-1.80957-2.51953-4.1665-4.72803-7.07129-6.62646c-2.90625-1.89697-6.28613-3.40918-10.13965-4.53613
			c-3.85547-1.12549-8.09424-1.68994-12.71924-1.68994c-5.69287,0-10.91113,0.91992-15.65479,2.75732
			c-4.74463,1.83887-8.8208,4.58057-12.22998,8.22754c-3.41016,3.64648-6.06348,8.15381-7.96045,13.51953
			c-1.89844,5.36719-2.84619,11.54932-2.84619,18.54541c0,6.9375,0.94775,13.11914,2.84619,18.54492
			c1.89697,5.42578,4.55029,10.00586,7.96045,13.74219c3.40918,3.73535,7.50098,6.56836,12.2749,8.49414
			c4.77246,1.92773,10.03516,2.89062,15.7876,2.89062c8.06348,0,15.06104-1.54102,20.99121-4.625
			c5.92871-3.08203,10.94043-7.35156,15.03174-12.80859v-17.52197H239.2417v-7.11523h33.97705v47.40771h-4.0918l-3.11279-12.98633
			c-2.25439,2.72852-4.74463,5.02539-7.47168,6.89355c-2.72803,1.86816-5.61865,3.37988-8.67188,4.53613
			c-3.05469,1.15625-6.2417,2.00098-9.56201,2.53516C236.9873,150.79395,233.60742,151.06152,230.16895,151.06152z"/>
		<path class="st4" d="M326.49707,85.86426c-0.65332-0.11816-1.36475-0.17822-2.13477-0.17822c-0.71143,0-1.57178,0-2.57959,0
			c-2.0166,0-3.97314,0.41553-5.87012,1.24561c-1.89844,0.83105-3.70654,1.91211-5.42578,3.24609
			c-1.7207,1.33447-3.32178,2.84668-4.80322,4.53662c-1.48291,1.68994-2.75732,3.42432-3.82471,5.20312v49.36475h-7.11523V80.34961
			h7.11523v9.51709c2.01514-2.37109,4.0166-4.29883,6.00391-5.78174c1.98584-1.48145,3.91357-2.6377,5.78174-3.46875
			c1.86768-0.82959,3.66064-1.37842,5.38086-1.64551c1.71924-0.2666,3.29102-0.40039,4.71436-0.40039
			c0.47363,0,0.91846,0.01562,1.33398,0.04492c0.41406,0.03027,0.88965,0.07471,1.42334,0.1333V85.86426z"/>
		<path class="st4" d="M366.43359,78.57031c3.55811,0,6.8335,0.47559,9.82861,1.42334
			c2.99365,0.94922,5.70654,2.3125,8.13867,4.09131l5.24756-7.29346l5.95947,3.73584l-6.04834,8.44971
			c2.49023,3.14355,4.37207,6.86426,5.64795,11.1626c1.27441,4.30029,1.9126,9.14746,1.9126,14.54297
			c0,5.75195-0.72705,10.88184-2.1792,15.3877c-1.4541,4.50684-3.51367,8.31641-6.18213,11.42871
			c-2.66797,3.11328-5.90088,5.48633-9.69482,7.11621c-3.79541,1.62988-8.00488,2.44629-12.63037,2.44629
			c-6.81934,0-12.66064-1.7207-17.52197-5.15918l-5.42578,7.56055l-5.95947-3.8252l6.13721-8.62695
			c-2.55029-3.08301-4.50684-6.81934-5.87012-11.20801c-1.36523-4.38672-2.0459-9.42773-2.0459-15.12012
			c0-5.69287,0.72559-10.77637,2.1792-15.25439c1.45215-4.47656,3.51318-8.25684,6.18164-11.34033
			c2.66846-3.08252,5.89941-5.43994,9.69482-7.07129C357.59766,79.38623,361.80859,78.57031,366.43359,78.57031z
			 M366.43359,85.68604c-3.55762,0-6.7749,0.60889-9.65039,1.82373c-2.87695,1.21582-5.35205,3.02393-7.42725,5.42529
			c-2.07617,2.40186-3.67725,5.42578-4.80273,9.07275c-1.12744,3.64648-1.68994,7.87158-1.68994,12.6748
			c0,4.3291,0.44434,8.16895,1.33398,11.51855c0.88965,3.35059,2.16406,6.27051,3.82471,8.76074l32.19824-45.00635
			c-1.89844-1.36328-4.00244-2.41553-6.31494-3.15771C371.59229,86.05713,369.10205,85.68604,366.43359,85.68604z
			 M366.43359,143.94531c3.49805,0,6.68506-0.60742,9.56152-1.82324c2.87549-1.21484,5.35059-3.05371,7.42725-5.51465
			c2.07471-2.45996,3.69092-5.51465,4.84766-9.16113c1.15625-3.64746,1.73438-7.90137,1.73438-12.76367
			c0-4.1499-0.43115-7.84131-1.29004-11.07373c-0.85986-3.23145-2.06104-6.0332-3.60205-8.40576l-32.02051,44.8291
			c1.8374,1.36426,3.86914,2.35645,6.09277,2.97949C361.4082,143.63379,363.82373,143.94531,366.43359,143.94531z"/>
		<path class="st4" d="M422.46924,90.57812c2.3125-2.72656,4.58057-4.89209,6.8042-6.49316
			c2.22363-1.60059,4.3877-2.81543,6.49316-3.64648c2.10449-0.82959,4.10547-1.34814,6.00391-1.55664
			c1.89648-0.20703,3.67578-0.31152,5.33691-0.31152c14.1709,0,21.25781,8.36133,21.25781,25.08301v45.62891h-7.11621v-45.00635
			c0-3.20215-0.28125-5.97314-0.84473-8.31641c-0.56445-2.3418-1.48242-4.26953-2.75684-5.78174
			c-1.27637-1.51172-2.93555-2.6377-4.98145-3.37988c-2.0459-0.74072-4.55176-1.11182-7.51562-1.11182
			c-3.91406,0-7.75391,1.15625-11.51855,3.46924c-3.76611,2.3125-7.48682,5.57422-11.1626,9.78369v50.34326h-7.11572V80.34961
			h7.11572V90.57812z"/>
		<path class="st4" d="M498.07227,90.57812c2.31348-2.72656,4.58105-4.89209,6.80469-6.49316
			c2.22363-1.60059,4.3877-2.81543,6.49316-3.64648c2.10449-0.82959,4.10547-1.34814,6.00391-1.55664
			c1.89648-0.20703,3.67578-0.31152,5.33691-0.31152c14.1709,0,21.25781,8.36133,21.25781,25.08301v45.62891h-7.11621v-45.00635
			c0-3.20215-0.28125-5.97314-0.84473-8.31641c-0.56445-2.3418-1.48242-4.26953-2.75684-5.78174
			c-1.27637-1.51172-2.93555-2.6377-4.98145-3.37988c-2.0459-0.74072-4.55176-1.11182-7.51562-1.11182
			c-3.91406,0-7.75391,1.15625-11.51855,3.46924c-3.7666,2.3125-7.48633,5.57422-11.16309,9.78369v50.34326h-7.11523V80.34961
			h7.11523V90.57812z"/>
	</g>
</g>
<g>
	<g>
		<path class="st4" d="M652.24707,63.1709h-32.49316v86.11133h-6.78711V63.1709h-32.1543v-6.78711h71.43457V63.1709z"/>
		<path class="st4" d="M697.97461,88.79199c-0.62305-0.11279-1.30176-0.16943-2.03613-0.16943c-0.67871,0-1.49902,0-2.45996,0
			c-1.92383,0-3.79004,0.396-5.59961,1.1875c-1.81055,0.79297-3.53516,1.82422-5.1748,3.09668
			c-1.6416,1.27246-3.16797,2.71484-4.58105,4.32666c-1.41504,1.61182-2.62988,3.2666-3.64844,4.96338v47.08545h-6.78711v-65.75
			h6.78711v9.07764c1.92188-2.26172,3.83105-4.1001,5.72656-5.51465c1.89453-1.41309,3.7334-2.51611,5.51465-3.30859
			c1.78125-0.7915,3.49121-1.31494,5.13281-1.56982c1.63965-0.25439,3.13867-0.38135,4.49609-0.38135
			c0.45215,0,0.87695,0.01416,1.27246,0.04199c0.39551,0.0293,0.84863,0.07178,1.35742,0.12744V88.79199z"/>
		<path class="st4" d="M736.06836,81.83545c3.39355,0,6.51758,0.45312,9.375,1.35742
			c2.85547,0.90527,5.44238,2.20557,7.7627,3.90234l5.00488-6.95654l5.68457,3.56299l-5.76953,8.05957
			c2.37598,2.99854,4.1709,6.54736,5.3877,10.64746c1.21582,4.10156,1.82422,8.7251,1.82422,13.87109
			c0,5.48682-0.69336,10.37939-2.0791,14.67725c-1.38574,4.29883-3.35059,7.93262-5.89551,10.90137
			c-2.5459,2.96973-5.62891,5.23242-9.24805,6.78711c-3.62012,1.55566-7.63574,2.33398-12.04688,2.33398
			c-6.50488,0-12.07617-1.6416-16.71289-4.9209l-5.17578,7.21094l-5.68359-3.64746l5.85352-8.22949
			c-2.43262-2.94043-4.29883-6.50391-5.59961-10.68945c-1.30176-4.18555-1.95117-8.99414-1.95117-14.42334
			c0-5.42969,0.69238-10.27881,2.07812-14.5498c1.38574-4.27002,3.35156-7.87549,5.89648-10.81689
			c2.5459-2.94043,5.62793-5.18848,9.24805-6.74463C727.63965,82.61328,731.65625,81.83545,736.06836,81.83545z M736.06836,88.62256
			c-3.39355,0-6.46289,0.58057-9.20508,1.73877c-2.74414,1.16016-5.10449,2.88477-7.08398,5.17529
			c-1.98047,2.29053-3.50781,5.17529-4.58105,8.65381c-1.0752,3.47852-1.6123,7.5083-1.6123,12.08936
			c0,4.12939,0.42383,7.79248,1.27246,10.98682c0.84863,3.19629,2.06445,5.98145,3.64844,8.35645l30.71191-42.92822
			c-1.81152-1.30078-3.81836-2.3042-6.02441-3.01221C740.98926,88.97607,738.61328,88.62256,736.06836,88.62256z
			 M736.06836,144.19141c3.33691,0,6.37598-0.5791,9.12012-1.73828c2.74316-1.15918,5.10352-2.91309,7.08398-5.26074
			c1.97949-2.3457,3.52051-5.25977,4.62402-8.73828c1.10254-3.47754,1.6543-7.53613,1.6543-12.17432
			c0-3.95801-0.41113-7.479-1.23047-10.5625c-0.82031-3.08203-1.96582-5.75439-3.43555-8.01709l-30.54199,42.75879
			c1.75195,1.30176,3.69043,2.24805,5.81152,2.8418C731.27441,143.89453,733.5791,144.19141,736.06836,144.19141z"/>
		<path class="st4" d="M804.87305,150.97949c-16.11914,0-24.91504-6.47656-26.38477-19.42871h6.87207
			c0.50879,3.95996,2.33301,7.05664,5.47168,9.29004c3.13867,2.23535,7.79102,3.35059,13.95605,3.35059
			c2.99707,0,5.62695-0.32422,7.88965-0.97559c2.26172-0.64941,4.14258-1.52637,5.64258-2.62988
			c1.49707-1.10254,2.61523-2.41797,3.35059-3.94434c0.73438-1.52734,1.10254-3.16699,1.10254-4.9209
			c0-1.75195-0.29688-3.25195-0.89062-4.49609s-1.66895-2.37598-3.22363-3.39453c-1.55664-1.01758-3.67676-1.99316-6.36328-2.92578
			c-2.68652-0.93359-6.12305-1.9375-10.30762-3.0127c-3.56348-0.90381-6.73145-1.83691-9.50195-2.79932
			c-2.77148-0.96143-5.10449-2.14893-6.99902-3.56348c-1.89551-1.41309-3.32324-3.12451-4.28418-5.13281
			c-0.96289-2.00684-1.44238-4.50977-1.44238-7.5083c0-2.60059,0.55078-4.96289,1.6543-7.08398
			c1.10254-2.12109,2.64355-3.91553,4.62402-5.38721c1.97852-1.47021,4.38184-2.60059,7.21094-3.39355
			c2.82715-0.7915,5.9668-1.1875,9.41699-1.1875c7.80566,0,13.72949,1.31494,17.77344,3.94482s6.29199,6.77393,6.74512,12.42871
			h-6.87207c-0.45312-3.2793-2.02246-5.69727-4.70898-7.25342c-2.68652-1.55518-6.68848-2.33301-12.00391-2.33301
			c-2.49023,0-4.78027,0.22656-6.87207,0.67871c-2.09375,0.45312-3.88965,1.11719-5.3877,1.99365
			c-1.49902,0.87744-2.67188,1.98047-3.52051,3.30859c-0.84863,1.32959-1.27246,2.84229-1.27246,4.53906
			c0,0.9624,0.16992,1.95117,0.50879,2.96924c0.33984,1.01807,1.20117,2.06543,2.58789,3.13916
			c1.38477,1.07471,3.46387,2.16309,6.23535,3.26611c2.77051,1.10303,6.56055,2.24805,11.36816,3.43604
			c3.78906,0.9624,7.08398,1.96582,9.88379,3.01172c2.7998,1.04736,5.11816,2.29102,6.95703,3.73242
			c1.83691,1.44336,3.20898,3.12695,4.11426,5.04883c0.9043,1.92285,1.35742,4.18555,1.35742,6.78711
			c0,2.88477-0.58008,5.58594-1.73828,8.10156c-1.16016,2.51758-2.7998,4.68066-4.9209,6.49023
			c-2.12109,1.81055-4.70898,3.23828-7.7627,4.28418C812.08398,150.45508,808.66113,150.97949,804.87305,150.97949z"/>
		<path class="st4" d="M869.26465,149.87598c-0.96191,0.11328-1.92285,0.19727-2.88379,0.25488
			c-0.96289,0.05566-1.92383,0.08496-2.88477,0.08496c-2.94141,0-5.30273-0.41113-7.08398-1.23047
			c-1.78223-0.81934-3.13965-2.0498-4.07227-3.69043c-0.93359-1.63965-1.54199-3.69043-1.82422-6.15137
			c-0.2832-2.45996-0.42383-5.33008-0.42383-8.61035V90.31934h-8.39941v-6.78711h8.39941V66.30957h6.78711v17.22266h10.77441
			v6.78711h-10.77441v40.80762c0,2.71484,0.19727,4.87793,0.59375,6.49023c0.39453,1.61133,0.98828,2.85645,1.78125,3.73242
			c0.79199,0.87793,1.76758,1.44238,2.92676,1.69727c1.15918,0.25391,2.47363,0.38184,3.94531,0.38184c0.62207,0,1.1582,0,1.6123,0
			c0.45215,0,0.96094-0.02832,1.52637-0.08496V149.87598z"/>
	</g>
</g>
</svg>
