<svg xmlns="http://www.w3.org/2000/svg" viewBox="0 0 1440 140" width="100%" height="100%" preserveAspectRatio="xMidYMax slice" xmlns:c2pa="http://c2pa.org/manifest"><metadata><c2pa:manifest>AAAWgmp1bWIAAAAeanVtZGMycGEAEQAQgAAAqgA4m3EDYzJwYQAAABZcanVtYgAAAEdqdW1kYzJtYQARABCAAACqADibcQN1cm46YzJwYTo4NGE0MjgzZS0wNTJmLTQ3ZmEtOWJmNC1kZjczMzMxMmQwOTAAAAADl2p1bWIAAAApanVtZGMyYXMAEQAQgAAAqgA4m3EDYzJwYS5hc3NlcnRpb25zAAAAALxqdW1iAAAARGp1bWRjYm9yABEAEIAAAKoAOJtxE2MycGEuaW5ncmVkaWVudC52MwAAAAAYYzJzaEkWoPjORDgJuknWgRh4Fd8AAABwY2JvcqNpZGM6Zm9ybWF0bWltYWdlL3N2Zyt4bWxqaW5zdGFuY2VJRHgseG1wOmlpZDo2NjYxZTY5ZC03OGY5LTQxNDgtYjQ2NS0zNmVhMDc4MjkwZTBscmVsYXRpb25zaGlwaHBhcmVudE9mAAAB4mp1bWIAAABBanVtZGNib3IAEQAQgAAAqgA4m3ETYzJwYS5hY3Rpb25zLnYyAAAAABhjMnNojwp9skfvWskq9TJvEZocQwAAAZljYm9yomdhY3Rpb25zgqJmYWN0aW9ua2MycGEub3BlbmVkanBhcmFtZXRlcnOha2luZ3JlZGllbnRzgaJjdXJseC1zZWxmI2p1bWJmPWMycGEuYXNzZXJ0aW9ucy9jMnBhLmluZ3JlZGllbnQudjNkaGFzaFggCIyoiQK4RJwx7Yfs2hjWLi3G3iV5wktXTE6q5/rH3nikZmFjdGlvbngdY29tLmFudGhyb3BpYy5jbGF1ZGUucHJvdmlkZWRqcGFyYW1ldGVyc6F4H2NvbS5hbnRocm9waWMub3JpZ2luLWNvbmZpZGVuY2VndW5rbm93bmtkZXNjcmlwdGlvbnhmQ2xhdWRlIHByb3ZpZGVkIHRoaXMgZmlsZSBhdCB0aGUgcmVxdWVzdCBvZiBhIHVzZXIgYW5kIG1heSBoYXZlIGNyZWF0ZWQgb3IgbW9kaWZpZWQgdGhlIGZpbGUgY29udGVudHMubXNvZnR3YXJlQWdlbnShZG5hbWVmQ2xhdWRlcmFsbEFjdGlvbnNJbmNsdWRlZPUAAADIanVtYgAAAEBqdW1kY2JvcgARABCAAACqADibcRNjMnBhLmhhc2guZGF0YQAAAAAYYzJzaEKprImdR35/NP0sTFa5oIsAAACAY2JvcqVjYWxnZnNoYTI1NmNwYWRNAAAAAAAAAAAAAAAAAGRoYXNoWCAsKlHsJRKk/STGVvQa9mUc7XIUp+z8yIqbcrl46r2mxmRuYW1lbmp1bWJmIG1hbmlmZXN0amV4Y2x1c2lvbnOBomVzdGFydBi+Zmxlbmd0aBkeBAAAAj5qdW1iAAAAJ2p1bWRjMmNsABEAEIAAAKoAOJtxA2MycGEuY2xhaW0udjIAAAACD2Nib3KlY2FsZ2ZzaGEyNTZpc2lnbmF0dXJleE1zZWxmI2p1bWJmPS9jMnBhL3VybjpjMnBhOjg0YTQyODNlLTA1MmYtNDdmYS05YmY0LWRmNzMzMzEyZDA5MC9jMnBhLnNpZ25hdHVyZWppbnN0YW5jZUlEeCx4bXA6aWlkOmNjMzIyNGFjLTJiMjgtNGM2OS1hODdjLTI1ZThmMmRiYjVjMnJjcmVhdGVkX2Fzc2VydGlvbnODomN1cmx4LXNlbGYjanVtYmY9YzJwYS5hc3NlcnRpb25zL2MycGEuaW5ncmVkaWVudC52M2RoYXNoWCAIjKiJArhEnDHth+zaGNYuLcbeJXnCS1dMTqrn+sfeeKJjdXJseCpzZWxmI2p1bWJmPWMycGEuYXNzZXJ0aW9ucy9jMnBhLmFjdGlvbnMudjJkaGFzaFggkI3fYvmlD97CZx12ZalUOzCPka8D48nwlNWGQwH0ymeiY3VybHgpc2VsZiNqdW1iZj1jMnBhLmFzc2VydGlvbnMvYzJwYS5oYXNoLmRhdGFkaGFzaFggeHQHeHYCM6taYHcwWRnXpj8RUZUtRYm6ReCz8H9rSNd0Y2xhaW1fZ2VuZXJhdG9yX2luZm+jZG5hbWVvQW50aHJvcGljIEZpbGVzZ3ZlcnNpb25lMS4wLjBrc3BlY1ZlcnNpb25lMi40LjAAABA4anVtYgAAAChqdW1kYzJjcwARABCAAACqADibcQNjMnBhLnNpZ25hdHVyZQAAABAIY2JvctKEWQISogEmGCFZAgowggIGMIIBjaADAgECAhRA5aAK7sI50L64g/oGQgU9Z1UTADAKBggqhkjOPQQDAzBJMRcwFQYDVQQKEw5BbnRocm9waWMsIFBCQzEuMCwGA1UEAxMlQW50aHJvcGljIENvbnRlbnQgQ3JlZGVudGlhbHMgUm9vdCBDQTAeFw0yNjA4MDcxODQzNTZaFw0yODA4MDYxOTQzNTZaMEQxFzAVBgNVBAoTDkFudGhyb3BpYywgUEJDMSkwJwYDVQQDEyBBbnRocm9waWMgQ2xhdWRlIENvbnRlbnQgU2lnbmluZzBZMBMGByqGSM49AgEGCCqGSM49AwEHA0IABJh6CmvLUBgFFNU0vUKlOVtE6djd17L5SuwX0LemFisBM3dkd/3cyjxFA3Qo5S46fX0/ihY0VZ7mfb9KF703t5OjWDBWMA4GA1UdDwEB/wQEAwIHgDAVBgNVHSUEDjAMBgorBgEEAYPoXgIBMAwGA1UdEwEB/wQCMAAwHwYDVR0jBBgwFoAUzlHiBIFOZFsj+OPEz5o+nMHXXMIwCgYIKoZIzj0EAwMDZwAwZAIwMXMdFJ4BetLLVY7ORuE9noqbbAZOZn/aArXyTwFAZfKrPzxF2vPoJNf1+UCdg1XGAjBwX1zd9WGqYkqmL5SFqw1QySjr1zJfpJM9+1rdDwSPLMOPOjKuiXjoU/pUUeG9RwmhY3BhZFkNngAAAAAAAAAAAAAAAAAAAAAAAAAAAAAAAAAAAAAAAAAAAAAAAAAAAAAAAAAAAAAAAAAAAAAAAAAAAAAAAAAAAAAAAAAAAAAAAAAAAAAAAAAAAAAAAAAAAAAAAAAAAAAAAAAAAAAAAAAAAAAAAAAAAAAAAAAAAAAAAAAAAAAAAAAAAAAAAAAAAAAAAAAAAAAAAAAAAAAAAAAAAAAAAAAAAAAAAAAAAAAAAAAAAAAAAAAAAAAAAAAAAAAAAAAAAAAAAAAAAAAAAAAAAAAAAAAAAAAAAAAAAAAAAAAAAAAAAAAAAAAAAAAAAAAAAAAAAAAAAAAAAAAAAAAAAAAAAAAAAAAAAAAAAAAAAAAAAAAAAAAAAAAAAAAAAAAAAAAAAAAAAAAAAAAAAAAAAAAAAAAAAAAAAAAAAAAAAAAAAAAAAAAAAAAAAAAAAAAAAAAAAAAAAAAAAAAAAAAAAAAAAAAAAAAAAAAAAAAAAAAAAAAAAAAAAAAAAAAAAAAAAAAAAAAAAAAAAAAAAAAAAAAAAAAAAAAAAAAAAAAAAAAAAAAAAAAAAAAAAAAAAAAAAAAAAAAAAAAAAAAAAAAAAAAAAAAAAAAAAAAAAAAAAAAAAAAAAAAAAAAAAAAAAAAAAAAAAAAAAAAAAAAAAAAAAAAAAAAAAAAAAAAAAAAAAAAAAAAAAAAAAAAAAAAAAAAAAAAAAAAAAAAAAAAAAAAAAAAAAAAAAAAAAAAAAAAAAAAAAAAAAAAAAAAAAAAAAAAAAAAAAAAAAAAAAAAAAAAAAAAAAAAAAAAAAAAAAAAAAAAAAAAAAAAAAAAAAAAAAAAAAAAAAAAAAAAAAAAAAAAAAAAAAAAAAAAAAAAAAAAAAAAAAAAAAAAAAAAAAAAAAAAAAAAAAAAAAAAAAAAAAAAAAAAAAAAAAAAAAAAAAAAAAAAAAAAAAAAAAAAAAAAAAAAAAAAAAAAAAAAAAAAAAAAAAAAAAAAAAAAAAAAAAAAAAAAAAAAAAAAAAAAAAAAAAAAAAAAAAAAAAAAAAAAAAAAAAAAAAAAAAAAAAAAAAAAAAAAAAAAAAAAAAAAAAAAAAAAAAAAAAAAAAAAAAAAAAAAAAAAAAAAAAAAAAAAAAAAAAAAAAAAAAAAAAAAAAAAAAAAAAAAAAAAAAAAAAAAAAAAAAAAAAAAAAAAAAAAAAAAAAAAAAAAAAAAAAAAAAAAAAAAAAAAAAAAAAAAAAAAAAAAAAAAAAAAAAAAAAAAAAAAAAAAAAAAAAAAAAAAAAAAAAAAAAAAAAAAAAAAAAAAAAAAAAAAAAAAAAAAAAAAAAAAAAAAAAAAAAAAAAAAAAAAAAAAAAAAAAAAAAAAAAAAAAAAAAAAAAAAAAAAAAAAAAAAAAAAAAAAAAAAAAAAAAAAAAAAAAAAAAAAAAAAAAAAAAAAAAAAAAAAAAAAAAAAAAAAAAAAAAAAAAAAAAAAAAAAAAAAAAAAAAAAAAAAAAAAAAAAAAAAAAAAAAAAAAAAAAAAAAAAAAAAAAAAAAAAAAAAAAAAAAAAAAAAAAAAAAAAAAAAAAAAAAAAAAAAAAAAAAAAAAAAAAAAAAAAAAAAAAAAAAAAAAAAAAAAAAAAAAAAAAAAAAAAAAAAAAAAAAAAAAAAAAAAAAAAAAAAAAAAAAAAAAAAAAAAAAAAAAAAAAAAAAAAAAAAAAAAAAAAAAAAAAAAAAAAAAAAAAAAAAAAAAAAAAAAAAAAAAAAAAAAAAAAAAAAAAAAAAAAAAAAAAAAAAAAAAAAAAAAAAAAAAAAAAAAAAAAAAAAAAAAAAAAAAAAAAAAAAAAAAAAAAAAAAAAAAAAAAAAAAAAAAAAAAAAAAAAAAAAAAAAAAAAAAAAAAAAAAAAAAAAAAAAAAAAAAAAAAAAAAAAAAAAAAAAAAAAAAAAAAAAAAAAAAAAAAAAAAAAAAAAAAAAAAAAAAAAAAAAAAAAAAAAAAAAAAAAAAAAAAAAAAAAAAAAAAAAAAAAAAAAAAAAAAAAAAAAAAAAAAAAAAAAAAAAAAAAAAAAAAAAAAAAAAAAAAAAAAAAAAAAAAAAAAAAAAAAAAAAAAAAAAAAAAAAAAAAAAAAAAAAAAAAAAAAAAAAAAAAAAAAAAAAAAAAAAAAAAAAAAAAAAAAAAAAAAAAAAAAAAAAAAAAAAAAAAAAAAAAAAAAAAAAAAAAAAAAAAAAAAAAAAAAAAAAAAAAAAAAAAAAAAAAAAAAAAAAAAAAAAAAAAAAAAAAAAAAAAAAAAAAAAAAAAAAAAAAAAAAAAAAAAAAAAAAAAAAAAAAAAAAAAAAAAAAAAAAAAAAAAAAAAAAAAAAAAAAAAAAAAAAAAAAAAAAAAAAAAAAAAAAAAAAAAAAAAAAAAAAAAAAAAAAAAAAAAAAAAAAAAAAAAAAAAAAAAAAAAAAAAAAAAAAAAAAAAAAAAAAAAAAAAAAAAAAAAAAAAAAAAAAAAAAAAAAAAAAAAAAAAAAAAAAAAAAAAAAAAAAAAAAAAAAAAAAAAAAAAAAAAAAAAAAAAAAAAAAAAAAAAAAAAAAAAAAAAAAAAAAAAAAAAAAAAAAAAAAAAAAAAAAAAAAAAAAAAAAAAAAAAAAAAAAAAAAAAAAAAAAAAAAAAAAAAAAAAAAAAAAAAAAAAAAAAAAAAAAAAAAAAAAAAAAAAAAAAAAAAAAAAAAAAAAAAAAAAAAAAAAAAAAAAAAAAAAAAAAAAAAAAAAAAAAAAAAAAAAAAAAAAAAAAAAAAAAAAAAAAAAAAAAAAAAAAAAAAAAAAAAAAAAAAAAAAAAAAAAAAAAAAAAAAAAAAAAAAAAAAAAAAAAAAAAAAAAAAAAAAAAAAAAAAAAAAAAAAAAAAAAAAAAAAAAAAAAAAAAAAAAAAAAAAAAAAAAAAAAAAAAAAAAAAAAAAAAAAAAAAAAAAAAAAAAAAAAAAAAAAAAAAAAAAAAAAAAAAAAAAAAAAAAAAAAAAAAAAAAAAAAAAAAAAAAAAAAAAAAAAAAAAAAAAAAAAAAAAAAAAAAAAAAAAAAAAAAAAAAAAAAAAAAAAAAAAAAAAAAAAAAAAAAAAAAAAAAAAAAAAAAAAAAAAAAAAAAAAAAAAAAAAAAAAAAAAAAAAAAAAAAAAAAAAAAAAAAAAAAAAAAAAAAAAAAAAAAAAAAAAAAAAAAAAAAAAAAAAAAAAAAAAAAAAAAAAAAAAAAAAAAAAAAAAAAAAAAAAAAAAAAAAAAAAAAAAAAAAAAAAAAAAAAAAAAAAAAAAAAAAAAAAAAAAAAAAAAAAAAAAAAAAAAAAAAAAAAAAAAAAAAAAAAAAAAAAAAAAAAAAAAAAAAAAAAAAAAAAAAAAAAAAAAAAAAAAAAAAAAAAAAAAAAAAAAAAAAAAAAAAAAAAAAAAAAAAAAAAAAAAAAAAAAAAAAAAAAAAAAAAAAAAAAAAAAAAAAAAAAAAAAAAAAAAAAAAAAAAAAAAAAAAAAAAAAAAAAAAAAAAAAAAAAAAAAAAAAAAAAAAAAAAAAAAAAAAAAAAAAAAAAAAAAAAAAAAAAAAAAAAAAAAAAAAAAAAAAAAAAAAAAAAAAAAAAAAAAAAAAAAAAAAAAAAAAAAAAAAAAAAAAAAAAAAAAAAAAAAAAAAAAAAAAAAAAAAAAAAAAAAAAAAAAAAAAAAAAAAAAAAAAAAAAAAAAAAAAAAAAAAAAAAAAAAAAAAAAAAAAAAAAAAAAAAAAAAAAAAAAAAAAAAAAAAAAAAAAAAAAAAAAAAAAAAAAAAAAAAAAAAAAAAAAAAAAAAAAAAAAAAAAAAAAAAAAAAAAAAAAAAAAAAAAAAAAAAAAAAAAAAAAAAAAAAAAAAAAAAAAAAAAAAAAAAAAAAAAAAAAAAAAAAAAAAAAAAAAAAAAAAAAAAAAAAAAAAAAAAAAAAAAAAAAAAAAAAAAAAAAAAAAAAAAAAAAAAAAAAAAAAAAAAAAAAAAAAAAAAAAAAAAAAAAAAAAAAAAAAAAAAAAAAAAAAAAAAAAAAAAAAAAAAAAAAAAAAAAAAAAAAAAAAAAAAAAAAAAAAAAAAAAAAAAAAAAAAAAAAAAAAAAAAAAAAAAAAAAAAAAAAAAAAAAAAAAAAAAAAAAAAAAAAAAAAAAAAAAAAAAAAAAAAAAAAAAAAAAAAAAAAAAAAAAAAAAAAAAAAAAAAAAAAAAAAAAAAAAAAAAAAAAAAAAAAAAAAAAAAAAAAAAAAAAAAAAAAAAAAAAAAAAAAAAAAAAAAAAAAAAAAAAAAAAAAAAAAAAAAAAAAAAAAAAAAAAAAAAAAAAAAAAAAAAAAAAAAAAAAAAAAAAAAAAAAAAAAAAAAAAAAAAAAAAAAAAAAAAAAAAAAAAAAAAAAAAAAAAAAAAAAAAAAAAAAAAAAAAAAAAAAAAAAAAAAAAAAAAAAAAAAAAAAAAAAAAAAAAAAAAAAAAAAAAAAAAAAAAAAAAAAAAAAAAAAAAAAAAAAAAAAAAAAAAAAAAAAAAAAAAAAAAAAAAAAAAAAAAAAAAAAAAAAAAAAAAAAAAAAAAAAAAAAAAAAAAAAAAAAAAAAAAAAAAAAAAAAAAAAAAAAAAAAAAAAAAAAAAAAAAAAAAAAAAAAAAAAAAAAAAAAAAAAAAAAAAAAAAAAAAAAAAAAAAAAAAAAAAAAAAAAAAAAAAAAAAAAAAAAAAAAAAAAPZYQEH4HHL5+cgI1Ck4A2BBIUavnK4IeCu3Wu85pS7VhKSCqv6mtozqcWQsemVKTYR3kO2jsjj+TAq+hrqCwcZKzG8=</c2pa:manifest></metadata><path d="M0,91.12L10,91.34L20,91.44L30,91.42L40,91.28L50,91.06L60,90.74L70,90.35L80,89.9L90,89.41L100,88.88L110,88.34L120,87.79L130,87.25L140,86.74L150,86.25L160,85.81L170,85.43L180,85.1L190,84.83L200,84.63L210,84.5L220,84.44L230,84.44L240,84.5L250,84.62L260,84.78L270,84.98L280,85.2L290,85.44L300,85.68L310,85.91L320,86.11L330,86.28L340,86.39L350,86.44L360,86.41L370,86.3L380,86.09L390,85.77L400,85.35L410,84.81L420,84.15L430,83.38L440,82.49L450,81.49L460,80.38L470,79.18L480,77.88L490,76.51L500,75.07L510,73.59L520,72.06L530,70.53L540,68.99L550,67.46L560,65.97L570,64.53L580,63.16L590,61.88L600,60.68L610,59.61L620,58.65L630,57.83L640,57.14L650,56.61L660,56.22L670,55.99L680,55.91L690,55.98L700,56.2L710,56.55L720,57.04L730,57.64L740,58.35L750,59.16L760,60.04L770,60.99L780,61.99L790,63.02L800,64.07L810,65.13L820,66.17L830,67.18L840,68.16L850,69.08L860,69.95L870,70.74L880,71.46L890,72.1L900,72.66L910,73.14L920,73.53L930,73.85L940,74.09L950,74.27L960,74.39L970,74.46L980,74.5L990,74.51L1000,74.5L1010,74.5L1020,74.51L1030,74.55L1040,74.62L1050,74.74L1060,74.92L1070,75.17L1080,75.5L1090,75.91L1100,76.4L1110,76.99L1120,77.66L1130,78.43L1140,79.28L1150,80.21L1160,81.21L1170,82.28L1180,83.4L1190,84.56L1200,85.74L1210,86.94L1220,88.14L1230,89.32L1240,90.46L1250,91.55L1260,92.58L1270,93.52L1280,94.36L1290,95.1L1300,95.71L1310,96.19L1320,96.52L1330,96.71L1340,96.75L1350,96.63L1360,96.36L1370,95.93L1380,95.35L1390,94.63L1400,93.78L1410,92.8L1420,91.71L1430,90.52L1440,89.24L1440,140L0,140Z" fill="#0B2119"></path><g transform="translate(694,56.05)"><path d="M0,3Q0.05,-13.07 0.16,-26.14" fill="none" stroke="#5C7A48" stroke-width="2" stroke-linecap="round" stroke-linejoin="round"></path><g transform="translate(0.06,-11.76) rotate(-50)"><path d="M0,0Q5.5,-8.5 0,-17Q-5.5,-8.5 0,0Z" fill="#8FA47C" fill-rule="evenodd"></path><path d="M0,0Q5.5,-8.5 0,-17Z" fill="#5C7A48" fill-rule="evenodd"></path></g><g transform="translate(0.16,-26.14) scale(0.66)"><g transform="rotate(0)"><path d="M0,-4C-9,-10 -14,-20 -8,-26C-4,-30 -1,-27 0,-24C1,-27 4,-30 8,-26C14,-20 9,-10 0,-4Z" fill="#8FA47C" fill-rule="evenodd"></path><path d="M0,-4C1,-27 4,-30 8,-26C14,-20 9,-10 0,-4Z" fill="#5C7A48" fill-rule="evenodd"></path></g><g transform="rotate(72)"><path d="M0,-4C-9,-10 -14,-20 -8,-26C-4,-30 -1,-27 0,-24C1,-27 4,-30 8,-26C14,-20 9,-10 0,-4Z" fill="#8FA47C" fill-rule="evenodd"></path><path d="M0,-4C1,-27 4,-30 8,-26C14,-20 9,-10 0,-4Z" fill="#5C7A48" fill-rule="evenodd"></path></g><g transform="rotate(144)"><path d="M0,-4C-9,-10 -14,-20 -8,-26C-4,-30 -1,-27 0,-24C1,-27 4,-30 8,-26C14,-20 9,-10 0,-4Z" fill="#8FA47C" fill-rule="evenodd"></path><path d="M0,-4C1,-27 4,-30 8,-26C14,-20 9,-10 0,-4Z" fill="#5C7A48" fill-rule="evenodd"></path></g><g transform="rotate(216)"><path d="M0,-4C-9,-10 -14,-20 -8,-26C-4,-30 -1,-27 0,-24C1,-27 4,-30 8,-26C14,-20 9,-10 0,-4Z" fill="#8FA47C" fill-rule="evenodd"></path><path d="M0,-4C1,-27 4,-30 8,-26C14,-20 9,-10 0,-4Z" fill="#5C7A48" fill-rule="evenodd"></path></g><g transform="rotate(288)"><path d="M0,-4C-9,-10 -14,-20 -8,-26C-4,-30 -1,-27 0,-24C1,-27 4,-30 8,-26C14,-20 9,-10 0,-4Z" fill="#8FA47C" fill-rule="evenodd"></path><path d="M0,-4C1,-27 4,-30 8,-26C14,-20 9,-10 0,-4Z" fill="#5C7A48" fill-rule="evenodd"></path></g><path d="M-4.2,0a4.2,4.2 0 1,0 8.4,0a4.2,4.2 0 1,0 -8.4,0Z" fill="#C98F2E" fill-rule="evenodd"></path></g></g><g transform="translate(724,57.26)"><path d="M0,3Q0.19,-17.01 0.63,-34.02" fill="none" stroke="#5C7A48" stroke-width="2" stroke-linecap="round" stroke-linejoin="round"></path><g transform="translate(0.22,-15.31) rotate(-50)"><path d="M0,0Q5.5,-8.5 0,-17Q-5.5,-8.5 0,0Z" fill="#8FA47C" fill-rule="evenodd"></path><path d="M0,0Q5.5,-8.5 0,-17Z" fill="#5C7A48" fill-rule="evenodd"></path></g><g transform="translate(0.4,-24.49) rotate(48)"><path d="M0,0Q4.5,-7 0,-14Q-4.5,-7 0,0Z" fill="#8FA47C" fill-rule="evenodd"></path><path d="M0,0Q4.5,-7 0,-14Z" fill="#5C7A48" fill-rule="evenodd"></path></g><g transform="translate(0.63,-34.02) scale(0.68)"><g transform="rotate(0)"><path d="M-2.3,-11.65a2.3,8.5 0 1,0 4.6,0a2.3,8.5 0 1,0 -4.6,0Z" fill="#C98B77" fill-rule="evenodd"></path><path d="M0,-20.15A2.3,8.5 0 0,1 0,-3.15Z" fill="#A66B58" fill-rule="evenodd"></path></g><g transform="rotate(20)"><path d="M-2.3,-11.65a2.3,8.5 0 1,0 4.6,0a2.3,8.5 0 1,0 -4.6,0Z" fill="#C98B77" fill-rule="evenodd"></path><path d="M0,-20.15A2.3,8.5 0 0,1 0,-3.15Z" fill="#A66B58" fill-rule="evenodd"></path></g><g transform="rotate(40)"><path d="M-2.3,-11.65a2.3,8.5 0 1,0 4.6,0a2.3,8.5 0 1,0 -4.6,0Z" fill="#C98B77" fill-rule="evenodd"></path><path d="M0,-20.15A2.3,8.5 0 0,1 0,-3.15Z" fill="#A66B58" fill-rule="evenodd"></path></g><g transform="rotate(60)"><path d="M-2.3,-11.65a2.3,8.5 0 1,0 4.6,0a2.3,8.5 0 1,0 -4.6,0Z" fill="#C98B77" fill-rule="evenodd"></path><path d="M0,-20.15A2.3,8.5 0 0,1 0,-3.15Z" fill="#A66B58" fill-rule="evenodd"></path></g><g transform="rotate(80)"><path d="M-2.3,-11.65a2.3,8.5 0 1,0 4.6,0a2.3,8.5 0 1,0 -4.6,0Z" fill="#C98B77" fill-rule="evenodd"></path><path d="M0,-20.15A2.3,8.5 0 0,1 0,-3.15Z" fill="#A66B58" fill-rule="evenodd"></path></g><g transform="rotate(100)"><path d="M-2.3,-11.65a2.3,8.5 0 1,0 4.6,0a2.3,8.5 0 1,0 -4.6,0Z" fill="#C98B77" fill-rule="evenodd"></path><path d="M0,-20.15A2.3,8.5 0 0,1 0,-3.15Z" fill="#A66B58" fill-rule="evenodd"></path></g><g transform="rotate(120)"><path d="M-2.3,-11.65a2.3,8.5 0 1,0 4.6,0a2.3,8.5 0 1,0 -4.6,0Z" fill="#C98B77" fill-rule="evenodd"></path><path d="M0,-20.15A2.3,8.5 0 0,1 0,-3.15Z" fill="#A66B58" fill-rule="evenodd"></path></g><g transform="rotate(140)"><path d="M-2.3,-11.65a2.3,8.5 0 1,0 4.6,0a2.3,8.5 0 1,0 -4.6,0Z" fill="#C98B77" fill-rule="evenodd"></path><path d="M0,-20.15A2.3,8.5 0 0,1 0,-3.15Z" fill="#A66B58" fill-rule="evenodd"></path></g><g transform="rotate(160)"><path d="M-2.3,-11.65a2.3,8.5 0 1,0 4.6,0a2.3,8.5 0 1,0 -4.6,0Z" fill="#C98B77" fill-rule="evenodd"></path><path d="M0,-20.15A2.3,8.5 0 0,1 0,-3.15Z" fill="#A66B58" fill-rule="evenodd"></path></g><g transform="rotate(180)"><path d="M-2.3,-11.65a2.3,8.5 0 1,0 4.6,0a2.3,8.5 0 1,0 -4.6,0Z" fill="#C98B77" fill-rule="evenodd"></path><path d="M0,-20.15A2.3,8.5 0 0,1 0,-3.15Z" fill="#A66B58" fill-rule="evenodd"></path></g><g transform="rotate(200)"><path d="M-2.3,-11.65a2.3,8.5 0 1,0 4.6,0a2.3,8.5 0 1,0 -4.6,0Z" fill="#C98B77" fill-rule="evenodd"></path><path d="M0,-20.15A2.3,8.5 0 0,1 0,-3.15Z" fill="#A66B58" fill-rule="evenodd"></path></g><g transform="rotate(220)"><path d="M-2.3,-11.65a2.3,8.5 0 1,0 4.6,0a2.3,8.5 0 1,0 -4.6,0Z" fill="#C98B77" fill-rule="evenodd"></path><path d="M0,-20.15A2.3,8.5 0 0,1 0,-3.15Z" fill="#A66B58" fill-rule="evenodd"></path></g><g transform="rotate(240)"><path d="M-2.3,-11.65a2.3,8.5 0 1,0 4.6,0a2.3,8.5 0 1,0 -4.6,0Z" fill="#C98B77" fill-rule="evenodd"></path><path d="M0,-20.15A2.3,8.5 0 0,1 0,-3.15Z" fill="#A66B58" fill-rule="evenodd"></path></g><g transform="rotate(260)"><path d="M-2.3,-11.65a2.3,8.5 0 1,0 4.6,0a2.3,8.5 0 1,0 -4.6,0Z" fill="#C98B77" fill-rule="evenodd"></path><path d="M0,-20.15A2.3,8.5 0 0,1 0,-3.15Z" fill="#A66B58" fill-rule="evenodd"></path></g><g transform="rotate(280)"><path d="M-2.3,-11.65a2.3,8.5 0 1,0 4.6,0a2.3,8.5 0 1,0 -4.6,0Z" fill="#C98B77" fill-rule="evenodd"></path><path d="M0,-20.15A2.3,8.5 0 0,1 0,-3.15Z" fill="#A66B58" fill-rule="evenodd"></path></g><g transform="rotate(300)"><path d="M-2.3,-11.65a2.3,8.5 0 1,0 4.6,0a2.3,8.5 0 1,0 -4.6,0Z" fill="#C98B77" fill-rule="evenodd"></path><path d="M0,-20.15A2.3,8.5 0 0,1 0,-3.15Z" fill="#A66B58" fill-rule="evenodd"></path></g><g transform="rotate(320)"><path d="M-2.3,-11.65a2.3,8.5 0 1,0 4.6,0a2.3,8.5 0 1,0 -4.6,0Z" fill="#C98B77" fill-rule="evenodd"></path><path d="M0,-20.15A2.3,8.5 0 0,1 0,-3.15Z" fill="#A66B58" fill-rule="evenodd"></path></g><g transform="rotate(340)"><path d="M-2.3,-11.65a2.3,8.5 0 1,0 4.6,0a2.3,8.5 0 1,0 -4.6,0Z" fill="#C98B77" fill-rule="evenodd"></path><path d="M0,-20.15A2.3,8.5 0 0,1 0,-3.15Z" fill="#A66B58" fill-rule="evenodd"></path></g><path d="M-4.5,0a4.5,4.5 0 1,0 9,0a4.5,4.5 0 1,0 -9,0Z" fill="#6A2A21" fill-rule="evenodd"></path><g transform="scale(0.55)"><g transform="rotate(0)"><path d="M-2.75,-11.3a2.75,8.5 0 1,0 5.5,0a2.75,8.5 0 1,0 -5.5,0Z" fill="#C98B77" fill-rule="evenodd"></path><path d="M0,-19.8A2.75,8.5 0 0,1 0,-2.8Z" fill="#A66B58" fill-rule="evenodd"></path></g><g transform="rotate(30)"><path d="M-2.75,-11.3a2.75,8.5 0 1,0 5.5,0a2.75,8.5 0 1,0 -5.5,0Z" fill="#C98B77" fill-rule="evenodd"></path><path d="M0,-19.8A2.75,8.5 0 0,1 0,-2.8Z" fill="#A66B58" fill-rule="evenodd"></path></g><g transform="rotate(60)"><path d="M-2.75,-11.3a2.75,8.5 0 1,0 5.5,0a2.75,8.5 0 1,0 -5.5,0Z" fill="#C98B77" fill-rule="evenodd"></path><path d="M0,-19.8A2.75,8.5 0 0,1 0,-2.8Z" fill="#A66B58" fill-rule="evenodd"></path></g><g transform="rotate(90)"><path d="M-2.75,-11.3a2.75,8.5 0 1,0 5.5,0a2.75,8.5 0 1,0 -5.5,0Z" fill="#C98B77" fill-rule="evenodd"></path><path d="M0,-19.8A2.75,8.5 0 0,1 0,-2.8Z" fill="#A66B58" fill-rule="evenodd"></path></g><g transform="rotate(120)"><path d="M-2.75,-11.3a2.75,8.5 0 1,0 5.5,0a2.75,8.5 0 1,0 -5.5,0Z" fill="#C98B77" fill-rule="evenodd"></path><path d="M0,-19.8A2.75,8.5 0 0,1 0,-2.8Z" fill="#A66B58" fill-rule="evenodd"></path></g><g transform="rotate(150)"><path d="M-2.75,-11.3a2.75,8.5 0 1,0 5.5,0a2.75,8.5 0 1,0 -5.5,0Z" fill="#C98B77" fill-rule="evenodd"></path><path d="M0,-19.8A2.75,8.5 0 0,1 0,-2.8Z" fill="#A66B58" fill-rule="evenodd"></path></g><g transform="rotate(180)"><path d="M-2.75,-11.3a2.75,8.5 0 1,0 5.5,0a2.75,8.5 0 1,0 -5.5,0Z" fill="#C98B77" fill-rule="evenodd"></path><path d="M0,-19.8A2.75,8.5 0 0,1 0,-2.8Z" fill="#A66B58" fill-rule="evenodd"></path></g><g transform="rotate(210)"><path d="M-2.75,-11.3a2.75,8.5 0 1,0 5.5,0a2.75,8.5 0 1,0 -5.5,0Z" fill="#C98B77" fill-rule="evenodd"></path><path d="M0,-19.8A2.75,8.5 0 0,1 0,-2.8Z" fill="#A66B58" fill-rule="evenodd"></path></g><g transform="rotate(240)"><path d="M-2.75,-11.3a2.75,8.5 0 1,0 5.5,0a2.75,8.5 0 1,0 -5.5,0Z" fill="#C98B77" fill-rule="evenodd"></path><path d="M0,-19.8A2.75,8.5 0 0,1 0,-2.8Z" fill="#A66B58" fill-rule="evenodd"></path></g><g transform="rotate(270)"><path d="M-2.75,-11.3a2.75,8.5 0 1,0 5.5,0a2.75,8.5 0 1,0 -5.5,0Z" fill="#C98B77" fill-rule="evenodd"></path><path d="M0,-19.8A2.75,8.5 0 0,1 0,-2.8Z" fill="#A66B58" fill-rule="evenodd"></path></g><g transform="rotate(300)"><path d="M-2.75,-11.3a2.75,8.5 0 1,0 5.5,0a2.75,8.5 0 1,0 -5.5,0Z" fill="#C98B77" fill-rule="evenodd"></path><path d="M0,-19.8A2.75,8.5 0 0,1 0,-2.8Z" fill="#A66B58" fill-rule="evenodd"></path></g><g transform="rotate(330)"><path d="M-2.75,-11.3a2.75,8.5 0 1,0 5.5,0a2.75,8.5 0 1,0 -5.5,0Z" fill="#C98B77" fill-rule="evenodd"></path><path d="M0,-19.8A2.75,8.5 0 0,1 0,-2.8Z" fill="#A66B58" fill-rule="evenodd"></path></g><path d="M-4,0a4,4 0 1,0 8,0a4,4 0 1,0 -8,0Z" fill="#6A2A21" fill-rule="evenodd"></path></g></g></g><g transform="translate(750,59.16)"><path d="M0,3Q1.58,-15.94 5.26,-31.88" fill="none" stroke="#5C7A48" stroke-width="2" stroke-linecap="round" stroke-linejoin="round"></path><g transform="translate(1.85,-14.35) rotate(-50)"><path d="M0,0Q5.5,-8.5 0,-17Q-5.5,-8.5 0,0Z" fill="#8FA47C" fill-rule="evenodd"></path><path d="M0,0Q5.5,-8.5 0,-17Z" fill="#5C7A48" fill-rule="evenodd"></path></g><g transform="translate(3.36,-22.95) rotate(48)"><path d="M0,0Q4.5,-7 0,-14Q-4.5,-7 0,0Z" fill="#8FA47C" fill-rule="evenodd"></path><path d="M0,0Q4.5,-7 0,-14Z" fill="#5C7A48" fill-rule="evenodd"></path></g><g transform="translate(5.26,-31.88) scale(0.66)"><g transform="rotate(0)"><path d="M-3.25,-15.2a3.25,11 0 1,0 6.5,0a3.25,11 0 1,0 -6.5,0Z" fill="#8E3B2F" fill-rule="evenodd"></path><path d="M0,-26.2A3.25,11 0 0,1 0,-4.2Z" fill="#6A2A21" fill-rule="evenodd"></path></g><g transform="rotate(25.714285714285715)"><path d="M-3.25,-15.2a3.25,11 0 1,0 6.5,0a3.25,11 0 1,0 -6.5,0Z" fill="#8E3B2F" fill-rule="evenodd"></path><path d="M0,-26.2A3.25,11 0 0,1 0,-4.2Z" fill="#6A2A21" fill-rule="evenodd"></path></g><g transform="rotate(51.42857142857143)"><path d="M-3.25,-15.2a3.25,11 0 1,0 6.5,0a3.25,11 0 1,0 -6.5,0Z" fill="#8E3B2F" fill-rule="evenodd"></path><path d="M0,-26.2A3.25,11 0 0,1 0,-4.2Z" fill="#6A2A21" fill-rule="evenodd"></path></g><g transform="rotate(77.14285714285714)"><path d="M-3.25,-15.2a3.25,11 0 1,0 6.5,0a3.25,11 0 1,0 -6.5,0Z" fill="#8E3B2F" fill-rule="evenodd"></path><path d="M0,-26.2A3.25,11 0 0,1 0,-4.2Z" fill="#6A2A21" fill-rule="evenodd"></path></g><g transform="rotate(102.85714285714286)"><path d="M-3.25,-15.2a3.25,11 0 1,0 6.5,0a3.25,11 0 1,0 -6.5,0Z" fill="#8E3B2F" fill-rule="evenodd"></path><path d="M0,-26.2A3.25,11 0 0,1 0,-4.2Z" fill="#6A2A21" fill-rule="evenodd"></path></g><g transform="rotate(128.57142857142858)"><path d="M-3.25,-15.2a3.25,11 0 1,0 6.5,0a3.25,11 0 1,0 -6.5,0Z" fill="#8E3B2F" fill-rule="evenodd"></path><path d="M0,-26.2A3.25,11 0 0,1 0,-4.2Z" fill="#6A2A21" fill-rule="evenodd"></path></g><g transform="rotate(154.28571428571428)"><path d="M-3.25,-15.2a3.25,11 0 1,0 6.5,0a3.25,11 0 1,0 -6.5,0Z" fill="#8E3B2F" fill-rule="evenodd"></path><path d="M0,-26.2A3.25,11 0 0,1 0,-4.2Z" fill="#6A2A21" fill-rule="evenodd"></path></g><g transform="rotate(180)"><path d="M-3.25,-15.2a3.25,11 0 1,0 6.5,0a3.25,11 0 1,0 -6.5,0Z" fill="#8E3B2F" fill-rule="evenodd"></path><path d="M0,-26.2A3.25,11 0 0,1 0,-4.2Z" fill="#6A2A21" fill-rule="evenodd"></path></g><g transform="rotate(205.71428571428572)"><path d="M-3.25,-15.2a3.25,11 0 1,0 6.5,0a3.25,11 0 1,0 -6.5,0Z" fill="#8E3B2F" fill-rule="evenodd"></path><path d="M0,-26.2A3.25,11 0 0,1 0,-4.2Z" fill="#6A2A21" fill-rule="evenodd"></path></g><g transform="rotate(231.42857142857144)"><path d="M-3.25,-15.2a3.25,11 0 1,0 6.5,0a3.25,11 0 1,0 -6.5,0Z" fill="#8E3B2F" fill-rule="evenodd"></path><path d="M0,-26.2A3.25,11 0 0,1 0,-4.2Z" fill="#6A2A21" fill-rule="evenodd"></path></g><g transform="rotate(257.14285714285717)"><path d="M-3.25,-15.2a3.25,11 0 1,0 6.5,0a3.25,11 0 1,0 -6.5,0Z" fill="#8E3B2F" fill-rule="evenodd"></path><path d="M0,-26.2A3.25,11 0 0,1 0,-4.2Z" fill="#6A2A21" fill-rule="evenodd"></path></g><g transform="rotate(282.8571428571429)"><path d="M-3.25,-15.2a3.25,11 0 1,0 6.5,0a3.25,11 0 1,0 -6.5,0Z" fill="#8E3B2F" fill-rule="evenodd"></path><path d="M0,-26.2A3.25,11 0 0,1 0,-4.2Z" fill="#6A2A21" fill-rule="evenodd"></path></g><g transform="rotate(308.57142857142856)"><path d="M-3.25,-15.2a3.25,11 0 1,0 6.5,0a3.25,11 0 1,0 -6.5,0Z" fill="#8E3B2F" fill-rule="evenodd"></path><path d="M0,-26.2A3.25,11 0 0,1 0,-4.2Z" fill="#6A2A21" fill-rule="evenodd"></path></g><g transform="rotate(334.2857142857143)"><path d="M-3.25,-15.2a3.25,11 0 1,0 6.5,0a3.25,11 0 1,0 -6.5,0Z" fill="#8E3B2F" fill-rule="evenodd"></path><path d="M0,-26.2A3.25,11 0 0,1 0,-4.2Z" fill="#6A2A21" fill-rule="evenodd"></path></g><path d="M-6,0a6,6 0 1,0 12,0a6,6 0 1,0 -12,0Z" fill="#C98F2E" fill-rule="evenodd"></path></g></g><g transform="translate(772,61.19) rotate(-3.956475540995598)"><path d="M0,2L0,-26.91118403011933" fill="none" stroke="#5C7A48" stroke-width="1.8" stroke-linecap="round" stroke-linejoin="round"></path><path d="M0.2,-8a2.8,3.8 0 1,0 5.6,0a2.8,3.8 0 1,0 -5.6,0Z" fill="#8E3B2F" fill-rule="evenodd"></path><path d="M3,-11.8A2.8,3.8 0 0,1 3,-4.2Z" fill="#6A2A21" fill-rule="evenodd"></path><path d="M-5.8,-15a2.8,3.8 0 1,0 5.6,0a2.8,3.8 0 1,0 -5.6,0Z" fill="#8E3B2F" fill-rule="evenodd"></path><path d="M-3,-18.8A2.8,3.8 0 0,1 -3,-11.2Z" fill="#6A2A21" fill-rule="evenodd"></path><path d="M0.2,-22a2.8,3.8 0 1,0 5.6,0a2.8,3.8 0 1,0 -5.6,0Z" fill="#8E3B2F" fill-rule="evenodd"></path><path d="M3,-25.8A2.8,3.8 0 0,1 3,-18.2Z" fill="#6A2A21" fill-rule="evenodd"></path></g><g transform="translate(662,48.16) rotate(178.61788532417268)"><path d="M0,0Q8,-13 0,-26Q-8,-13 0,0Z" fill="#8FA47C" fill-rule="evenodd"></path><path d="M0,0Q8,-13 0,-26Z" fill="#5C7A48" fill-rule="evenodd"></path></g><g transform="translate(790,63.02)"><path d="M0,3Q3,-14.684499643743038 1,-29.368999287486076" fill="none" stroke="#061510" stroke-width="1.8" stroke-linecap="round" stroke-linejoin="round"></path><g transform="translate(1,-29.368999287486076) scale(0.6719410834368318)"><path d="M-9.5,0a4.5,4.5 0 1,0 9,0a4.5,4.5 0 1,0 -9,0Z" fill="#0B2119" fill-rule="evenodd"></path><path d="M-5,-4.5A4.5,4.5 0 0,1 -5,4.5Z" fill="#061510" fill-rule="evenodd"></path><path d="M0,-4a4,4 0 1,0 8,0a4,4 0 1,0 -8,0Z" fill="#0B2119" fill-rule="evenodd"></path><path d="M4,-8A4,4 0 0,1 4,0Z" fill="#061510" fill-rule="evenodd"></path><path d="M-0.5,5a3.5,3.5 0 1,0 7,0a3.5,3.5 0 1,0 -7,0Z" fill="#0B2119" fill-rule="evenodd"></path><path d="M3,1.5A3.5,3.5 0 0,1 3,8.5Z" fill="#061510" fill-rule="evenodd"></path></g></g></svg>